<svg xmlns="http://www.w3.org/2000/svg" viewBox="0 0 253.13 78.28"><defs><style>.cls-1{fill:#196999;}.cls-2{fill:#4bb9ff;}.cls-3{fill:#004166;}</style></defs><g id="Layer_2" data-name="Layer 2"><g id="Layer_1-2" data-name="Layer 1"><rect class="cls-1" x="13.5" y="52.1" width="13" height="13" transform="translate(75.58 85.88) rotate(135)"/><rect class="cls-2" x="29.87" y="24.34" width="29.39" height="29.39" transform="translate(103.68 35.13) rotate(135)"/><rect class="cls-3" x="3.69" y="10.33" width="17.84" height="17.84" transform="translate(35.14 23.94) rotate(135)"/><path class="cls-1" d="M78.46,19.69,74.53.33h3.4l2.49,13.3,3-13.3h4l2.89,13.52L92.79.33h3.34l-4,19.36H88.61L85.33,5.22,82.07,19.69Z"/><path class="cls-1" d="M98.3,19.69V.33h3.32V19.69Z"/><path class="cls-1" d="M105.41,19.69V.33h3.32v8.6l6.72-8.6h4.46l-6.19,7.54,6.53,11.82H116l-4.52-9.09-2.7,3.24v5.85Z"/><path class="cls-1" d="M122.44,19.69V.33h3.32V19.69Z"/><path class="cls-1" d="M129.52.33h6.57A16,16,0,0,1,139,.52a3.85,3.85,0,0,1,1.71.8A4.75,4.75,0,0,1,142,2.94a4.94,4.94,0,0,1,.5,2.26,5.07,5.07,0,0,1-.62,2.5,4.07,4.07,0,0,1-1.69,1.7,4.38,4.38,0,0,1,2.31,1.76,5.23,5.23,0,0,1,.81,2.92,6.59,6.59,0,0,1-.52,2.57,5,5,0,0,1-1.43,2,4.28,4.28,0,0,1-2.22.92c-.56.07-1.89.11-4,.13h-5.6Zm3.32,3.22V8H135A22.44,22.44,0,0,0,137.43,8a2.05,2.05,0,0,0,1.34-.69,2.23,2.23,0,0,0,.49-1.51,2.36,2.36,0,0,0-.42-1.46,1.79,1.79,0,0,0-1.25-.68c-.33-.05-1.28-.07-2.84-.07Zm0,7.7v5.18h3.08a12.82,12.82,0,0,0,2.28-.12,2,2,0,0,0,1.2-.77,2.67,2.67,0,0,0,.47-1.65,2.87,2.87,0,0,0-.36-1.48,2.09,2.09,0,0,0-1-.88,9.44,9.44,0,0,0-2.95-.28Z"/><path class="cls-1" d="M161.52,19.69h-3.61l-1.44-4.4h-6.58l-1.36,4.4H145L151.42.33h3.51ZM155.4,12l-2.26-7.18L150.91,12Z"/><path class="cls-1" d="M163,13.39l3.23-.37a4.92,4.92,0,0,0,1.18,2.81,3.25,3.25,0,0,0,2.41.9,3.29,3.29,0,0,0,2.42-.8,2.53,2.53,0,0,0,.81-1.87,1.94,1.94,0,0,0-.34-1.16,2.7,2.7,0,0,0-1.19-.84c-.39-.16-1.28-.44-2.66-.85a8.43,8.43,0,0,1-3.75-1.91,5.48,5.48,0,0,1-1.52-3.9,5.71,5.71,0,0,1,.71-2.77,4.76,4.76,0,0,1,2.06-2A7.12,7.12,0,0,1,169.62,0a6.23,6.23,0,0,1,4.66,1.6,6.09,6.09,0,0,1,1.65,4.26L172.6,6a3.5,3.5,0,0,0-.91-2.14,3,3,0,0,0-2.11-.66,3.34,3.34,0,0,0-2.26.71,1.45,1.45,0,0,0-.53,1.2,1.56,1.56,0,0,0,.49,1.17,7.91,7.91,0,0,0,3.06,1.3A14.54,14.54,0,0,1,173.92,9a5,5,0,0,1,1.82,2,6.53,6.53,0,0,1,.66,3.08,6.4,6.4,0,0,1-.79,3.12,4.93,4.93,0,0,1-2.22,2.16,8.1,8.1,0,0,1-3.58.7,6.46,6.46,0,0,1-4.8-1.69A7.93,7.93,0,0,1,163,13.39Z"/><path class="cls-1" d="M179.77,19.69V.33H192V3.6h-8.88V7.9h8.26v3.26h-8.26v5.27h9.2v3.26Z"/><path class="cls-1" d="M75.29,42.52l3.23-.37A4.92,4.92,0,0,0,79.7,45a3.25,3.25,0,0,0,2.41.9,3.33,3.33,0,0,0,2.42-.8,2.53,2.53,0,0,0,.81-1.87A2,2,0,0,0,85,42a2.67,2.67,0,0,0-1.2-.83c-.38-.16-1.27-.44-2.65-.85a8.43,8.43,0,0,1-3.75-1.91,5.44,5.44,0,0,1-1.52-3.9,5.68,5.68,0,0,1,.71-2.77,4.7,4.7,0,0,1,2.06-2,7.12,7.12,0,0,1,3.24-.67,6.23,6.23,0,0,1,4.66,1.6A6.13,6.13,0,0,1,88.2,35l-3.33.17A3.55,3.55,0,0,0,84,33a3,3,0,0,0-2.11-.66,3.44,3.44,0,0,0-2.27.7,1.5,1.5,0,0,0-.52,1.21,1.59,1.59,0,0,0,.49,1.17,8.08,8.08,0,0,0,3,1.3,14.09,14.09,0,0,1,3.59,1.39,5,5,0,0,1,1.82,2,7,7,0,0,1-.13,6.2,5,5,0,0,1-2.22,2.16,8.1,8.1,0,0,1-3.58.7,6.46,6.46,0,0,1-4.8-1.69A8,8,0,0,1,75.29,42.52Z"/><path class="cls-1" d="M95.74,48.82V32.73H90.86V29.46h13.08v3.27H99.06V48.82Z"/><path class="cls-1" d="M119.79,48.82h-3.62l-1.43-4.4h-6.58l-1.36,4.4h-3.52l6.41-19.36h3.51Zm-6.12-7.66L111.4,34l-2.22,7.19Z"/><path class="cls-1" d="M122.17,48.82V29.46h3.32v8.6l6.72-8.6h4.47L130.48,37,137,48.82h-4.3l-4.52-9.09L125.49,43v5.85Z"/><path class="cls-1" d="M139.3,48.82V29.46h12.21v3.27h-8.88V37h8.26v3.26h-8.26v5.27h9.19v3.26Z"/><path class="cls-1" d="M155.22,48.82V29.46h3.32v7.62h6.52V29.46h3.32V48.82h-3.32V40.35h-6.52v8.47Z"/><path class="cls-1" d="M171.71,39.26a14.08,14.08,0,0,1,.76-5A9.18,9.18,0,0,1,174,31.64a6.51,6.51,0,0,1,2.13-1.75,7.82,7.82,0,0,1,3.54-.76,7.13,7.13,0,0,1,5.82,2.65q2.19,2.65,2.19,7.39c0,3.12-.72,5.57-2.17,7.33a7.08,7.08,0,0,1-5.79,2.65,7.19,7.19,0,0,1-5.84-2.63A11.15,11.15,0,0,1,171.71,39.26Zm3.43-.13a8.13,8.13,0,0,0,1.29,5,4,4,0,0,0,3.28,1.7A3.91,3.91,0,0,0,183,44.12a8.3,8.3,0,0,0,1.27-5,8.14,8.14,0,0,0-1.24-5,4.13,4.13,0,0,0-6.6,0A8.2,8.2,0,0,0,175.14,39.13Z"/><path class="cls-1" d="M190.93,48.82V29.62h3.33V45.56h8.26v3.26Z"/><path class="cls-1" d="M205.22,29.46h6.08a10,10,0,0,1,3.13.37,5.46,5.46,0,0,1,2.48,1.78,8.82,8.82,0,0,1,1.57,3.14,16.54,16.54,0,0,1,.54,4.57,14.62,14.62,0,0,1-.51,4.12,8.77,8.77,0,0,1-1.76,3.42,5.65,5.65,0,0,1-2.33,1.55,8.76,8.76,0,0,1-2.94.41h-6.26Zm3.33,3.27V45.56H211a7.43,7.43,0,0,0,2-.19,3,3,0,0,0,1.34-.8,4.53,4.53,0,0,0,.87-1.87,15.08,15.08,0,0,0,.33-3.55,13.74,13.74,0,0,0-.33-3.44,4.61,4.61,0,0,0-.95-1.88,3,3,0,0,0-1.53-.91,13.06,13.06,0,0,0-2.73-.19Z"/><path class="cls-1" d="M222.41,48.82V29.46h12.2v3.27h-8.87V37H234v3.26h-8.26v5.27h9.19v3.26Z"/><path class="cls-1" d="M238.33,48.82V29.46h7a10.27,10.27,0,0,1,3.83.52,4,4,0,0,1,1.91,1.85,6.34,6.34,0,0,1,.72,3.06,5.73,5.73,0,0,1-1.09,3.6,5,5,0,0,1-3.25,1.79,8,8,0,0,1,1.78,1.62A24.23,24.23,0,0,1,251.12,45l2,3.78h-4l-2.4-4.21A27.37,27.37,0,0,0,245,41.76a2.64,2.64,0,0,0-1-.81,4.86,4.86,0,0,0-1.67-.21h-.68v8.08Zm3.32-11.17h2.46a10.77,10.77,0,0,0,3-.24,1.81,1.81,0,0,0,.93-.82,2.8,2.8,0,0,0,.34-1.45,2.64,2.64,0,0,0-.44-1.58,2,2,0,0,0-1.26-.76c-.27,0-1.08-.07-2.42-.07h-2.6Z"/><path class="cls-1" d="M83.78,70.83V67.57h7.16v7.71a8.77,8.77,0,0,1-3,2.09,9.48,9.48,0,0,1-4,.91A7.92,7.92,0,0,1,79.41,77a7.71,7.71,0,0,1-2.89-3.64,13.62,13.62,0,0,1-1-5.16,12.71,12.71,0,0,1,1.08-5.37,8,8,0,0,1,3.16-3.61,7.44,7.44,0,0,1,3.94-1,7,7,0,0,1,4.78,1.51A7.07,7.07,0,0,1,90.73,64l-3.3.73a4.16,4.16,0,0,0-1.31-2.26,3.54,3.54,0,0,0-2.39-.82,4.2,4.2,0,0,0-3.47,1.62A7.72,7.72,0,0,0,79,68a8.51,8.51,0,0,0,1.3,5.17,4.09,4.09,0,0,0,3.41,1.73,4.88,4.88,0,0,0,2.1-.49,7.06,7.06,0,0,0,1.8-1.16V70.83Z"/><path class="cls-1" d="M94.6,78V58.59h7a10.2,10.2,0,0,1,3.83.52A4,4,0,0,1,107.34,61a6.34,6.34,0,0,1,.71,3.06A5.74,5.74,0,0,1,107,67.61a4.93,4.93,0,0,1-3.26,1.79A8.29,8.29,0,0,1,105.49,71a21.55,21.55,0,0,1,1.89,3.14l2,3.78h-4L103,73.74a25.65,25.65,0,0,0-1.75-2.85,2.56,2.56,0,0,0-1-.81,4.86,4.86,0,0,0-1.67-.21h-.67V78Zm3.32-11.18h2.46a10.84,10.84,0,0,0,3-.23,1.81,1.81,0,0,0,.93-.82,2.8,2.8,0,0,0,.34-1.45,2.64,2.64,0,0,0-.44-1.58,1.94,1.94,0,0,0-1.25-.76,21.63,21.63,0,0,0-2.43-.07H97.92Z"/><path class="cls-1" d="M111.09,68.39a14.29,14.29,0,0,1,.75-5,9,9,0,0,1,1.53-2.65A6.51,6.51,0,0,1,115.5,59a7.89,7.89,0,0,1,3.55-.76,7.16,7.16,0,0,1,5.82,2.65,11.33,11.33,0,0,1,2.18,7.38q0,4.69-2.17,7.34a7.08,7.08,0,0,1-5.79,2.65,7.18,7.18,0,0,1-5.84-2.64A11.1,11.1,0,0,1,111.09,68.39Zm3.42-.14a8.14,8.14,0,0,0,1.29,5,4,4,0,0,0,3.28,1.7,3.91,3.91,0,0,0,3.26-1.69,8.29,8.29,0,0,0,1.28-5,8.21,8.21,0,0,0-1.24-5,4.14,4.14,0,0,0-6.61,0A8.19,8.19,0,0,0,114.51,68.25Z"/><path class="cls-1" d="M130.2,58.59h3.32V69.07a26.27,26.27,0,0,0,.12,3.24,3.22,3.22,0,0,0,1,1.91,3.16,3.16,0,0,0,2.19.72,3,3,0,0,0,2.14-.68,2.82,2.82,0,0,0,.86-1.67A24.94,24.94,0,0,0,140,69.3V58.59h3.32V68.76a30.54,30.54,0,0,1-.27,4.92,5.93,5.93,0,0,1-1,2.43,5.15,5.15,0,0,1-1.94,1.58,7.32,7.32,0,0,1-3.17.59,7.82,7.82,0,0,1-3.57-.64A5.34,5.34,0,0,1,131.45,76a5.7,5.7,0,0,1-.93-2.14,28.43,28.43,0,0,1-.32-4.92Z"/><path class="cls-1" d="M147.4,78V58.59h5.33a16.14,16.14,0,0,1,4,.29,4.39,4.39,0,0,1,2.37,1.89,6.84,6.84,0,0,1,.95,3.77,7.21,7.21,0,0,1-.55,3,5,5,0,0,1-1.4,1.91,4.53,4.53,0,0,1-1.72.92,16.42,16.42,0,0,1-3.44.28h-2.17V78Zm3.32-16.09v5.5h1.82a7.44,7.44,0,0,0,2.63-.31,2.25,2.25,0,0,0,1-1,2.93,2.93,0,0,0,.38-1.5,2.8,2.8,0,0,0-.53-1.75,2.25,2.25,0,0,0-1.33-.86,14.7,14.7,0,0,0-2.4-.13Z"/></g></g></svg>