<?xml version="1.0" encoding="UTF-8" standalone="no"?>
<svg
   xmlns:dc="http://purl.org/dc/elements/1.1/"
   xmlns:cc="http://creativecommons.org/ns#"
   xmlns:rdf="http://www.w3.org/1999/02/22-rdf-syntax-ns#"
   xmlns:svg="http://www.w3.org/2000/svg"
   xmlns="http://www.w3.org/2000/svg"
   xmlns:sodipodi="http://sodipodi.sourceforge.net/DTD/sodipodi-0.dtd"
   xmlns:inkscape="http://www.inkscape.org/namespaces/inkscape"
   width="451px"
   height="111px"
   viewBox="0 0 451 111"
   version="1.1"
   id="svg10"
   sodipodi:docname="enslaved-org.svg"
   inkscape:version="0.92.5 (2060ec1f9f, 2020-04-08)">
  <metadata
     id="metadata16">
    <rdf:RDF>
      <cc:Work
         rdf:about="">
        <dc:format>image/svg+xml</dc:format>
        <dc:type
           rdf:resource="http://purl.org/dc/dcmitype/StillImage" />
      </cc:Work>
    </rdf:RDF>
  </metadata>
  <defs
     id="defs14" />
  <sodipodi:namedview
     pagecolor="#ffffff"
     bordercolor="#666666"
     borderopacity="1"
     objecttolerance="10"
     gridtolerance="10"
     guidetolerance="10"
     inkscape:pageopacity="0"
     inkscape:pageshadow="2"
     inkscape:window-width="2560"
     inkscape:window-height="1376"
     id="namedview12"
     showgrid="false"
     inkscape:zoom="0.79379157"
     inkscape:cx="100.78212"
     inkscape:cy="55.5"
     inkscape:window-x="0"
     inkscape:window-y="27"
     inkscape:window-maximized="1"
     inkscape:current-layer="svg10" />
  <title
     id="title2">Logo</title>
  <g
     id="Finals"
     stroke="none"
     stroke-width="1"
     fill="none"
     fill-rule="evenodd"
     style="fill:#000000;fill-opacity:1">
    <g
       id="-Main-Hub---Condensed---Outlined"
       transform="translate(-324.000000, -134.000000)"
       fill-rule="nonzero"
       style="fill:#000000;fill-opacity:1">
      <g
         id="Logo"
         transform="translate(324.000000, 135.000000)"
         style="fill:#000000;fill-opacity:1">
        <path
           d="M66,75.3513514 C63.0810665,81.5856168 60.7027119,87.5315032 58.8648649,93.1891892 C45.2792114,92.7567546 35.6036324,92.5405405 29.8378378,92.5405405 C24.1441157,92.5405405 14.4865546,92.7567546 0.864864865,93.1891892 C0.288285405,93.1891892 5.40012479e-13,92.6846897 5.40012479e-13,91.6756757 C5.40012479e-13,90.7747703 0.288285405,90.2882886 0.864864865,90.2162162 C3.85587081,89.8558541 6.14413622,89.3783814 7.72972973,88.7837838 C9.31532324,88.1891862 10.4234203,87.3873924 11.0540541,86.3783784 C11.6846878,85.3693643 12,83.6036162 12,81.0810811 L12,30.2162162 C12,27.7297173 11.7027057,25.9729781 11.1081081,24.9459459 C10.5135105,23.9189138 9.42343135,23.0991022 7.83783784,22.4864865 C6.25224432,21.8738708 3.92794324,21.3873892 0.864864865,21.027027 C0.288285405,21.027027 5.40012479e-13,20.5225276 5.40012479e-13,19.5135135 C5.40012479e-13,18.5044995 0.288285405,18 0.864864865,18 C9.94599135,18.4324346 19.2431957,18.6486486 28.7567568,18.6486486 C38.3423903,18.6486486 47.6576124,18.4324346 56.7027027,18 C57.5315357,23.5856135 58.7387308,29.0990719 60.3243243,34.5405405 C60.3243243,35.2612649 59.6937,35.6216216 58.4324324,35.6216216 C57.8198168,35.6216216 57.4414422,35.3693719 57.2972973,34.8648649 C54.6306173,26.3603178 48.9369805,22.1081081 40.2162162,22.1081081 L29.2972973,22.1081081 C25.1170962,22.1081081 23.027027,24.2702486 23.027027,28.5945946 L23.027027,52.6486486 L36.6486486,52.6486486 C40.2522703,52.6486486 42.6936873,51.8198281 43.972973,50.1621622 C45.2522586,48.5044962 46.1441416,45.5675886 46.6486486,41.3513514 C46.6486486,40.7747719 47.1531481,40.4864865 48.1621622,40.4864865 C49.1711762,40.4864865 49.6756757,40.7747719 49.6756757,41.3513514 C49.6756757,43.1531622 49.5675686,45.4234097 49.3513514,48.1621622 C49.1351341,50.7928059 49.027027,52.9369286 49.027027,54.5945946 C49.027027,56.2882968 49.1351341,58.4504373 49.3513514,61.0810811 C49.5675686,63.8919059 49.6756757,66.1981892 49.6756757,68 C49.6756757,68.5765795 49.1711762,68.8648649 48.1621622,68.8648649 C47.1531481,68.8648649 46.6486486,68.5765795 46.6486486,68 C46.1081054,63.6035816 45.1621689,60.5225314 43.8108108,58.7567568 C42.4594527,56.9909822 40.0720892,56.1081081 36.6486486,56.1081081 L23.027027,56.1081081 L23.027027,82.7027027 C23.027027,86.9549762 25.1170962,89.0810811 29.2972973,89.0810811 L41.0810811,89.0810811 C45.3693908,89.0810811 49.6216005,87.6846986 53.8378378,84.8918919 C58.0540751,82.0990851 61.1531432,78.6126335 63.1351351,74.4324324 C63.27928,74.1081065 63.5855832,73.9459459 64.0540541,73.9459459 C64.5585611,73.9459459 65.009007,74.0810797 65.4054054,74.3513514 C65.8018038,74.621623 66,74.954953 66,75.3513514 Z"
           id="E"
           fill="#FFFFFF"
           style="fill:#000000;fill-opacity:1" />
        <path
           d="M128.075,52.21 C128.261667,52.21 128.355,52.0466667 128.355,51.72 C128.355,51.4283333 128.261667,51.2708333 128.075,51.2475 C127.095,51.1308333 126.35125,50.97625 125.84375,50.78375 C125.33625,50.59125 124.980417,50.3316667 124.77625,50.005 C124.572083,49.6783333 124.47,49.1066667 124.47,48.29 L124.47,48.29 L124.47,42.095 C125.823333,42.2116667 127.2,42.27 128.6,42.27 C130.933333,42.27 132.890417,41.5729167 134.47125,40.17875 C136.052083,38.7845833 136.8425,37.0608333 136.8425,35.0075 C136.8425,32.6741667 136.09875,30.9008333 134.61125,29.6875 C133.12375,28.4741667 130.945,27.8675 128.075,27.8675 C127.293333,27.8675 126.365833,27.9025 125.2925,27.9725 C124.265833,28.0425 123.396667,28.0775 122.685,28.0775 C121.973333,28.0775 121.098333,28.0425 120.06,27.9725 C118.975,27.9025 118.041667,27.8675 117.26,27.8675 C117.073333,27.8675 116.98,28.0308333 116.98,28.3575 C116.98,28.6841667 117.073333,28.8475 117.26,28.8475 C118.251667,28.9641667 119.004167,29.11875 119.5175,29.31125 C120.030833,29.50375 120.389583,29.76625 120.59375,30.09875 C120.797917,30.43125 120.9,31.0058333 120.9,31.8225 L120.9,31.8225 L120.9,48.29 C120.9,49.375 120.64625,50.0983333 120.13875,50.46 C119.63125,50.8216667 118.671667,51.0841667 117.26,51.2475 C117.073333,51.2708333 116.98,51.4283333 116.98,51.72 C116.98,52.0466667 117.073333,52.21 117.26,52.21 C118.041667,52.21 118.975,52.175 120.06,52.105 C121.098333,52.035 121.973333,52 122.685,52 C123.396667,52 124.265833,52.035 125.2925,52.105 C126.365833,52.175 127.293333,52.21 128.075,52.21 Z M126.99,41.115 C125.94,41.115 125.2575,41.0304167 124.9425,40.86125 C124.6275,40.6920833 124.47,40.3566667 124.47,39.855 L124.47,39.855 L124.47,31.8225 C124.47,30.8891667 124.572083,30.265 124.77625,29.95 C124.980417,29.635 125.330417,29.4075 125.82625,29.2675 C126.322083,29.1275 127.025,29.0575 127.935,29.0575 C129.451667,29.0575 130.667917,29.5825 131.58375,30.6325 C132.499583,31.6825 132.9575,33.1408333 132.9575,35.0075 C132.9575,36.9091667 132.438333,38.4025 131.4,39.4875 C130.361667,40.5725 128.891667,41.115 126.99,41.115 Z M146.59,52.735 C147.546667,52.735 148.4625,52.5308333 149.3375,52.1225 C150.2125,51.7141667 151.023333,51.1220833 151.77,50.34625 C152.516667,49.5704167 152.89,49.06 152.89,48.815 C152.89,48.64 152.840417,48.4883333 152.74125,48.36 C152.642083,48.2316667 152.54,48.1675 152.435,48.1675 L152.435,48.1675 L152.3475,48.2025 C151.834167,48.8908333 151.1575,49.4566667 150.3175,49.9 C149.4775,50.3433333 148.643333,50.565 147.815,50.565 C146.17,50.565 144.90125,50.0604167 144.00875,49.05125 C143.11625,48.0420833 142.67,46.5983333 142.67,44.72 C142.67,44.0433333 142.705,43.39 142.775,42.76 L142.775,42.76 L152.365,42.76 C152.785,42.76 152.995,42.5966667 152.995,42.27 C152.995,40.835 152.379583,39.5254167 151.14875,38.34125 C149.917917,37.1570833 148.398333,36.565 146.59,36.565 C144.431667,36.565 142.649583,37.3583333 141.24375,38.945 C139.837917,40.5316667 139.135,42.4683333 139.135,44.755 C139.135,46.995 139.8525,48.885 141.2875,50.425 C142.7225,51.965 144.49,52.735 146.59,52.735 Z M142.915,41.78 C143.148333,40.555 143.594583,39.56625 144.25375,38.81375 C144.912917,38.06125 145.691667,37.685 146.59,37.685 C147.535,37.685 148.307917,37.97375 148.90875,38.55125 C149.509583,39.12875 149.81,39.855 149.81,40.73 C149.81,41.0683333 149.655417,41.3016667 149.34625,41.43 C149.037083,41.5583333 148.515,41.6283333 147.78,41.64 L147.78,41.64 L142.915,41.78 Z M163.67,52.735 C166.073333,52.735 168.030417,51.9854167 169.54125,50.48625 C171.052083,48.9870833 171.8075,47.0766667 171.8075,44.755 C171.8075,42.3983333 171.049167,40.4441667 169.5325,38.8925 C168.015833,37.3408333 166.061667,36.565 163.67,36.565 C161.29,36.565 159.335833,37.34375 157.8075,38.90125 C156.279167,40.45875 155.515,42.41 155.515,44.755 C155.515,47.065 156.273333,48.9725 157.79,50.4775 C159.306667,51.9825 161.266667,52.735 163.67,52.735 Z M163.67,51.615 C162.223333,51.615 161.091667,50.99375 160.275,49.75125 C159.458333,48.50875 159.05,46.8316667 159.05,44.72 C159.05,42.5966667 159.464167,40.8933333 160.2925,39.61 C161.120833,38.3266667 162.246667,37.685 163.67,37.685 C165.105,37.685 166.23375,38.32375 167.05625,39.60125 C167.87875,40.87875 168.29,42.585 168.29,44.72 C168.29,46.855 167.881667,48.5379167 167.065,49.76875 C166.248333,50.9995833 165.116667,51.615 163.67,51.615 Z M181.345,61.275 C181.531667,61.275 181.625,61.1116667 181.625,60.785 C181.625,60.4583333 181.531667,60.295 181.345,60.295 C180.341667,60.1666667 179.694167,59.9216667 179.4025,59.56 C179.110833,59.1983333 178.965,58.4516667 178.965,57.32 L178.965,57.32 L178.965,51.93 C179.956667,52.4666667 181.146667,52.735 182.535,52.735 C184.95,52.735 186.933333,51.9795833 188.485,50.46875 C190.036667,48.9579167 190.8125,47.0533333 190.8125,44.755 C190.8125,42.2933333 190.141667,40.3129167 188.8,38.81375 C187.458333,37.3145833 185.638333,36.565 183.34,36.565 C182.745,36.565 182.0275,36.7895833 181.1875,37.23875 C180.3475,37.6879167 179.606667,38.245 178.965,38.91 L178.965,38.91 L179.105,36.705 C179.105,36.5183333 178.941667,36.425 178.615,36.425 C178.498333,36.425 178.375833,36.495 178.2475,36.635 C178.0025,36.8916667 177.497917,37.2008333 176.73375,37.5625 C175.969583,37.9241667 175.021667,38.245 173.89,38.525 C173.703333,38.525 173.61,38.665 173.61,38.945 C173.61,39.2483333 173.703333,39.4 173.89,39.4 C174.718333,39.4933333 175.252083,39.6858333 175.49125,39.9775 C175.730417,40.2691667 175.85,40.8816667 175.85,41.815 L175.85,41.815 L175.85,57.32 C175.85,58.4516667 175.70125,59.1983333 175.40375,59.56 C175.10625,59.9216667 174.461667,60.1666667 173.47,60.295 C173.283333,60.295 173.19,60.4583333 173.19,60.785 C173.19,61.1116667 173.283333,61.275 173.47,61.275 C173.948333,61.275 174.560833,61.24 175.3075,61.17 C176.135833,61.1 176.841667,61.065 177.425,61.065 C177.985,61.065 178.673333,61.1 179.49,61.17 C180.248333,61.24 180.866667,61.275 181.345,61.275 Z M182.395,51.615 C181.438333,51.615 180.6275,51.3641667 179.9625,50.8625 C179.2975,50.3608333 178.965,49.7366667 178.965,48.99 L178.965,48.99 L178.965,40.415 C179.618333,39.6916667 180.204583,39.1958333 180.72375,38.9275 C181.242917,38.6591667 181.823333,38.525 182.465,38.525 C183.993333,38.525 185.180417,39.0704167 186.02625,40.16125 C186.872083,41.2520833 187.295,42.7716667 187.295,44.72 C187.295,46.925 186.875,48.6254167 186.035,49.82125 C185.195,51.0170833 183.981667,51.615 182.395,51.615 Z M200.875,52.175 C201.061667,52.175 201.155,52.0116667 201.155,51.685 C201.155,51.3933333 201.061667,51.2358333 200.875,51.2125 C199.871667,51.0958333 199.224167,50.8595833 198.9325,50.50375 C198.640833,50.1479167 198.495,49.3983333 198.495,48.255 L198.495,48.255 L198.495,32.9775 C198.495,31.5308333 198.588333,29.5008333 198.775,26.8875 C198.775,26.7008333 198.611667,26.6075 198.285,26.6075 C198.145,26.6075 198.016667,26.6716667 197.9,26.8 C197.701667,27.045 197.211667,27.3454167 196.43,27.70125 C195.648333,28.0570833 194.645,28.3925 193.42,28.7075 C193.233333,28.7075 193.14,28.8475 193.14,29.1275 C193.14,29.3958333 193.233333,29.5416667 193.42,29.565 C194.26,29.6583333 194.796667,29.8508333 195.03,30.1425 C195.263333,30.4341667 195.38,31.0525 195.38,31.9975 L195.38,31.9975 L195.38,48.255 C195.38,49.3983333 195.23125,50.1479167 194.93375,50.50375 C194.63625,50.8595833 193.991667,51.0958333 193,51.2125 C192.813333,51.2358333 192.72,51.3933333 192.72,51.685 C192.72,52.0116667 192.813333,52.175 193,52.175 C193.478333,52.175 194.090833,52.1458333 194.8375,52.0875 C195.665833,52.0291667 196.36,52 196.92,52 C197.491667,52 198.1975,52.0291667 199.0375,52.0875 C199.784167,52.1458333 200.396667,52.175 200.875,52.175 Z M209.975,52.735 C210.931667,52.735 211.8475,52.5308333 212.7225,52.1225 C213.5975,51.7141667 214.408333,51.1220833 215.155,50.34625 C215.901667,49.5704167 216.275,49.06 216.275,48.815 C216.275,48.64 216.225417,48.4883333 216.12625,48.36 C216.027083,48.2316667 215.925,48.1675 215.82,48.1675 L215.82,48.1675 L215.7325,48.2025 C215.219167,48.8908333 214.5425,49.4566667 213.7025,49.9 C212.8625,50.3433333 212.028333,50.565 211.2,50.565 C209.555,50.565 208.28625,50.0604167 207.39375,49.05125 C206.50125,48.0420833 206.055,46.5983333 206.055,44.72 C206.055,44.0433333 206.09,43.39 206.16,42.76 L206.16,42.76 L215.75,42.76 C216.17,42.76 216.38,42.5966667 216.38,42.27 C216.38,40.835 215.764583,39.5254167 214.53375,38.34125 C213.302917,37.1570833 211.783333,36.565 209.975,36.565 C207.816667,36.565 206.034583,37.3583333 204.62875,38.945 C203.222917,40.5316667 202.52,42.4683333 202.52,44.755 C202.52,46.995 203.2375,48.885 204.6725,50.425 C206.1075,51.965 207.875,52.735 209.975,52.735 Z M206.3,41.78 C206.533333,40.555 206.979583,39.56625 207.63875,38.81375 C208.297917,38.06125 209.076667,37.685 209.975,37.685 C210.92,37.685 211.692917,37.97375 212.29375,38.55125 C212.894583,39.12875 213.195,39.855 213.195,40.73 C213.195,41.0683333 213.040417,41.3016667 212.73125,41.43 C212.422083,41.5583333 211.9,41.6283333 211.165,41.64 L211.165,41.64 L206.3,41.78 Z M224.185,52.735 C225.771667,52.735 227.125,52.2508333 228.245,51.2825 C229.365,50.3141667 229.925,49.1183333 229.925,47.695 C229.925,46.9016667 229.650833,46.19 229.1025,45.56 C228.554167,44.93 227.416667,44.1833333 225.69,43.32 C224.243333,42.5966667 223.304167,42.0075 222.8725,41.5525 C222.440833,41.0975 222.225,40.6016667 222.225,40.065 C222.225,38.4783333 223.135,37.685 224.955,37.685 C225.666667,37.685 226.279167,37.9504167 226.7925,38.48125 C227.305833,39.0120833 227.626667,39.7033333 227.755,40.555 C227.79,40.7416667 227.953333,40.835 228.245,40.835 C228.583333,40.835 228.7525,40.7475 228.7525,40.5725 C228.635833,39.6041667 228.56,38.4316667 228.525,37.055 C228.338333,37.055 227.941667,36.9966667 227.335,36.88 C226.238333,36.67 225.386667,36.565 224.78,36.565 C223.333333,36.565 222.079167,37.0054167 221.0175,37.88625 C219.955833,38.7670833 219.425,39.82 219.425,41.045 C219.425,42.0366667 219.707917,42.8883333 220.27375,43.6 C220.839583,44.3116667 222.003333,45.07 223.765,45.875 C225.106667,46.4933333 225.97875,47.0125 226.38125,47.4325 C226.78375,47.8525 226.985,48.3366667 226.985,48.885 C226.985,49.7483333 226.742917,50.4191667 226.25875,50.8975 C225.774583,51.3758333 225.095,51.615 224.22,51.615 C223.38,51.615 222.563333,51.2941667 221.77,50.6525 C220.976667,50.0108333 220.445833,49.2583333 220.1775,48.395 C220.119167,48.2083333 219.95,48.115 219.67,48.115 C219.331667,48.115 219.1625,48.2025 219.1625,48.3775 C219.500833,50.0458333 219.716667,51.2883333 219.81,52.105 C220.125,52.105 220.72,52.1925 221.595,52.3675 C222.761667,52.6125 223.625,52.735 224.185,52.735 Z M249.175,52.735 C251.578333,52.735 253.535417,51.9854167 255.04625,50.48625 C256.557083,48.9870833 257.3125,47.0766667 257.3125,44.755 C257.3125,42.3983333 256.554167,40.4441667 255.0375,38.8925 C253.520833,37.3408333 251.566667,36.565 249.175,36.565 C246.795,36.565 244.840833,37.34375 243.3125,38.90125 C241.784167,40.45875 241.02,42.41 241.02,44.755 C241.02,47.065 241.778333,48.9725 243.295,50.4775 C244.811667,51.9825 246.771667,52.735 249.175,52.735 Z M249.175,51.615 C247.728333,51.615 246.596667,50.99375 245.78,49.75125 C244.963333,48.50875 244.555,46.8316667 244.555,44.72 C244.555,42.5966667 244.969167,40.8933333 245.7975,39.61 C246.625833,38.3266667 247.751667,37.685 249.175,37.685 C250.61,37.685 251.73875,38.32375 252.56125,39.60125 C253.38375,40.87875 253.795,42.585 253.795,44.72 C253.795,46.855 253.386667,48.5379167 252.57,49.76875 C251.753333,50.9995833 250.621667,51.615 249.175,51.615 Z M268.0925,52.21 C268.279167,52.21 268.3725,52.0466667 268.3725,51.72 C268.3725,51.4283333 268.279167,51.2708333 268.0925,51.2475 C267.089167,51.1191667 266.4475,50.88 266.1675,50.53 C265.8875,50.18 265.7475,49.4333333 265.7475,48.29 L265.7475,48.29 L265.7475,39.505 L269.7025,39.645 C269.9825,39.645 270.1225,39.33 270.1225,38.7 C270.1225,38.07 269.9825,37.755 269.7025,37.755 L269.7025,37.755 L265.7825,37.755 L265.7825,33.6775 C265.7825,32.1725 266.0625,30.9795833 266.6225,30.09875 C267.1825,29.2179167 267.859167,28.7775 268.6525,28.7775 C269.025833,28.7775 269.451667,28.9583333 269.93,29.32 C270.501667,29.7516667 271.0675,29.9675 271.6275,29.9675 C272.2575,29.9675 272.753333,29.8304167 273.115,29.55625 C273.476667,29.2820833 273.6575,28.9058333 273.6575,28.4275 C273.6575,27.9141667 273.432917,27.5116667 272.98375,27.22 C272.534583,26.9283333 271.919167,26.7825 271.1375,26.7825 C268.885833,26.7825 266.899583,27.85875 265.17875,30.01125 C263.457917,32.16375 262.5975,34.6516667 262.5975,37.475 C262.5975,37.79 261.850833,38.1166667 260.3575,38.455 C260.1475,38.5016667 260.0425,38.6766667 260.0425,38.98 C260.0425,39.2833333 260.159167,39.435 260.3925,39.435 L260.3925,39.435 L262.1775,39.435 C262.4575,39.435 262.5975,39.5983333 262.5975,39.925 L262.5975,39.925 L262.5975,48.29 C262.5975,49.4333333 262.454583,50.18 262.16875,50.53 C261.882917,50.88 261.244167,51.1191667 260.2525,51.2475 C260.065833,51.2708333 259.9725,51.4283333 259.9725,51.72 C259.9725,52.0466667 260.065833,52.21 260.2525,52.21 C260.730833,52.21 261.3375,52.175 262.0725,52.105 C262.889167,52.035 263.589167,52 264.1725,52 C264.744167,52 265.444167,52.035 266.2725,52.105 C267.0075,52.175 267.614167,52.21 268.0925,52.21 Z M286.555,52.595 C287.64,52.595 288.617083,52.3470833 289.48625,51.85125 C290.355417,51.3554167 290.79,50.9616667 290.79,50.67 C290.79,50.53 290.752083,50.39875 290.67625,50.27625 C290.600417,50.15375 290.515833,50.0925 290.4225,50.0925 C289.629167,50.5475 288.748333,50.775 287.78,50.775 C286.216667,50.775 285.435,49.6783333 285.435,47.485 L285.435,47.485 L285.435,39.085 L290.65,39.225 C290.953333,39.225 291.105,38.91 291.105,38.28 C291.105,37.65 290.953333,37.335 290.65,37.335 L290.65,37.335 L285.505,37.335 L285.645,33.9925 C285.645,33.8058333 285.481667,33.7125 285.155,33.7125 C284.956667,33.7125 284.793333,33.8058333 284.665,33.9925 C283.463333,35.7308333 282.051667,37.0783333 280.43,38.035 C280.22,38.1516667 280.115,38.3266667 280.115,38.56 C280.115,38.8633333 280.243333,39.015 280.5,39.015 L280.5,39.015 L281.83,39.015 C282.11,39.015 282.25,39.1783333 282.25,39.505 L282.25,39.505 L282.18,48.01 L282.18,48.1675 C282.18,49.4975 282.576667,50.5679167 283.37,51.37875 C284.163333,52.1895833 285.225,52.595 286.555,52.595 Z M310.8975,52.21 C311.084167,52.21 311.1775,52.0466667 311.1775,51.72 C311.1775,51.4283333 311.084167,51.2708333 310.8975,51.2475 C309.905833,51.1308333 309.26125,50.8945833 308.96375,50.53875 C308.66625,50.1829167 308.5175,49.4333333 308.5175,48.29 L308.5175,48.29 L308.5175,41.605 C308.5175,40.065 308.042083,38.84 307.09125,37.93 C306.140417,37.02 304.836667,36.565 303.18,36.565 C301.558333,36.565 299.913333,37.3583333 298.245,38.945 L298.245,38.945 L298.245,33.0125 C298.245,30.8658333 298.338333,28.8358333 298.525,26.9225 C298.525,26.7358333 298.361667,26.6425 298.035,26.6425 C297.918333,26.6425 297.7725,26.7125 297.5975,26.8525 C296.640833,27.6225 295.165,28.2408333 293.17,28.7075 C292.983333,28.7075 292.89,28.8591667 292.89,29.1625 C292.89,29.4308333 292.983333,29.5766667 293.17,29.6 C293.998333,29.6933333 294.52625,29.8858333 294.75375,30.1775 C294.98125,30.4691667 295.095,31.0875 295.095,32.0325 L295.095,32.0325 L295.095,48.29 C295.095,49.445 294.949167,50.2004167 294.6575,50.55625 C294.365833,50.9120833 293.73,51.1425 292.75,51.2475 C292.563333,51.2708333 292.47,51.4283333 292.47,51.72 C292.47,52.0466667 292.563333,52.21 292.75,52.21 C293.228333,52.21 293.8,52.175 294.465,52.105 C295.211667,52.035 295.876667,52 296.46,52 C297.031667,52 297.749167,52.035 298.6125,52.105 C299.3825,52.175 300.006667,52.21 300.485,52.21 C300.671667,52.21 300.765,52.0466667 300.765,51.72 C300.765,51.4283333 300.671667,51.2708333 300.485,51.2475 C299.598333,51.1425 299.003333,50.8858333 298.7,50.4775 C298.396667,50.0691667 298.245,49.34 298.245,48.29 L298.245,48.29 L298.245,40.415 C299.295,39.2483333 300.543333,38.665 301.99,38.665 C304.276667,38.665 305.42,39.925 305.42,42.445 L305.42,42.445 L305.42,48.29 C305.42,49.445 305.294583,50.2033333 305.04375,50.565 C304.792917,50.9266667 304.265,51.1541667 303.46,51.2475 C303.273333,51.2708333 303.18,51.4283333 303.18,51.72 C303.18,52.0466667 303.273333,52.21 303.46,52.21 C303.926667,52.21 304.504167,52.175 305.1925,52.105 C305.950833,52.035 306.621667,52 307.205,52 C307.765,52 308.418333,52.035 309.165,52.105 C309.853333,52.175 310.430833,52.21 310.8975,52.21 Z M320.015,52.735 C320.971667,52.735 321.8875,52.5308333 322.7625,52.1225 C323.6375,51.7141667 324.448333,51.1220833 325.195,50.34625 C325.941667,49.5704167 326.315,49.06 326.315,48.815 C326.315,48.64 326.265417,48.4883333 326.16625,48.36 C326.067083,48.2316667 325.965,48.1675 325.86,48.1675 L325.86,48.1675 L325.7725,48.2025 C325.259167,48.8908333 324.5825,49.4566667 323.7425,49.9 C322.9025,50.3433333 322.068333,50.565 321.24,50.565 C319.595,50.565 318.32625,50.0604167 317.43375,49.05125 C316.54125,48.0420833 316.095,46.5983333 316.095,44.72 C316.095,44.0433333 316.13,43.39 316.2,42.76 L316.2,42.76 L325.79,42.76 C326.21,42.76 326.42,42.5966667 326.42,42.27 C326.42,40.835 325.804583,39.5254167 324.57375,38.34125 C323.342917,37.1570833 321.823333,36.565 320.015,36.565 C317.856667,36.565 316.074583,37.3583333 314.66875,38.945 C313.262917,40.5316667 312.56,42.4683333 312.56,44.755 C312.56,46.995 313.2775,48.885 314.7125,50.425 C316.1475,51.965 317.915,52.735 320.015,52.735 Z M316.34,41.78 C316.573333,40.555 317.019583,39.56625 317.67875,38.81375 C318.337917,38.06125 319.116667,37.685 320.015,37.685 C320.96,37.685 321.732917,37.97375 322.33375,38.55125 C322.934583,39.12875 323.235,39.855 323.235,40.73 C323.235,41.0683333 323.080417,41.3016667 322.77125,41.43 C322.462083,41.5583333 321.94,41.6283333 321.205,41.64 L321.205,41.64 L316.34,41.78 Z M145.0325,87.21 C145.219167,87.21 145.3125,87.0466667 145.3125,86.72 C145.3125,86.4283333 145.219167,86.2708333 145.0325,86.2475 C143.620833,86.0841667 142.66125,85.8216667 142.15375,85.46 C141.64625,85.0983333 141.3925,84.375 141.3925,83.29 L141.3925,83.29 L141.3925,66.8225 C141.3925,66.0058333 141.494583,65.43125 141.69875,65.09875 C141.902917,64.76625 142.261667,64.50375 142.775,64.31125 C143.288333,64.11875 144.040833,63.9641667 145.0325,63.8475 C145.219167,63.8475 145.3125,63.6841667 145.3125,63.3575 C145.3125,63.0308333 145.219167,62.8675 145.0325,62.8675 C144.239167,62.8675 143.3,62.9025 142.215,62.9725 C141.188333,63.0425 140.319167,63.0775 139.6075,63.0775 C138.895833,63.0775 138.073333,63.0425 137.14,62.9725 C136.16,62.9025 135.279167,62.8675 134.4975,62.8675 C134.310833,62.8675 134.2175,63.0308333 134.2175,63.3575 C134.2175,63.6841667 134.310833,63.8475 134.4975,63.8475 C135.500833,63.9641667 136.23875,64.1245833 136.71125,64.32875 C137.18375,64.5329167 137.487083,64.8041667 137.62125,65.1425 C137.755417,65.4808333 137.8225,66.0408333 137.8225,66.8225 L137.8225,66.8225 L137.8225,74.365 L124.47,74.365 L124.47,66.8225 C124.47,65.8891667 124.563333,65.27375 124.75,64.97625 C124.936667,64.67875 125.263333,64.4425 125.73,64.2675 C126.196667,64.0925 126.885,63.9525 127.795,63.8475 C127.981667,63.8475 128.075,63.6841667 128.075,63.3575 C128.075,63.0308333 127.981667,62.8675 127.795,62.8675 C127.013333,62.8675 126.1325,62.9025 125.1525,62.9725 C124.219167,63.0425 123.396667,63.0775 122.685,63.0775 C121.973333,63.0775 121.098333,63.0425 120.06,62.9725 C118.975,62.9025 118.041667,62.8675 117.26,62.8675 C117.073333,62.8675 116.98,63.0308333 116.98,63.3575 C116.98,63.6841667 117.073333,63.8475 117.26,63.8475 C118.251667,63.9641667 119.004167,64.11875 119.5175,64.31125 C120.030833,64.50375 120.389583,64.76625 120.59375,65.09875 C120.797917,65.43125 120.9,66.0058333 120.9,66.8225 L120.9,66.8225 L120.9,83.29 C120.9,84.375 120.64625,85.0983333 120.13875,85.46 C119.63125,85.8216667 118.671667,86.0841667 117.26,86.2475 C117.073333,86.2708333 116.98,86.4283333 116.98,86.72 C116.98,87.0466667 117.073333,87.21 117.26,87.21 C118.041667,87.21 118.975,87.175 120.06,87.105 C121.098333,87.035 121.973333,87 122.685,87 C123.396667,87 124.219167,87.035 125.1525,87.105 C126.1325,87.175 127.013333,87.21 127.795,87.21 C127.981667,87.21 128.075,87.0466667 128.075,86.72 C128.075,86.4283333 127.981667,86.2708333 127.795,86.2475 C126.803333,86.1308333 126.068333,85.9704167 125.59,85.76625 C125.111667,85.5620833 124.805417,85.29375 124.67125,84.96125 C124.537083,84.62875 124.47,84.0716667 124.47,83.29 L124.47,83.29 L124.47,75.485 L137.8225,75.485 L137.8225,83.29 C137.8225,84.0716667 137.755417,84.62875 137.62125,84.96125 C137.487083,85.29375 137.180833,85.5620833 136.7025,85.76625 C136.224167,85.9704167 135.495,86.1308333 134.515,86.2475 C134.316667,86.2708333 134.2175,86.4283333 134.2175,86.72 C134.2175,87.0466667 134.310833,87.21 134.4975,87.21 C135.279167,87.21 136.16,87.175 137.14,87.105 C138.073333,87.035 138.895833,87 139.6075,87 C140.319167,87 141.188333,87.035 142.215,87.105 C143.3,87.175 144.239167,87.21 145.0325,87.21 Z M151.35,67.3825 C151.851667,67.3825 152.280417,67.2016667 152.63625,66.84 C152.992083,66.4783333 153.17,66.0525 153.17,65.5625 C153.17,65.0491667 152.992083,64.6175 152.63625,64.2675 C152.280417,63.9175 151.851667,63.7425 151.35,63.7425 C150.836667,63.7425 150.405,63.9175 150.055,64.2675 C149.705,64.6175 149.53,65.0491667 149.53,65.5625 C149.53,66.0525 149.707917,66.4783333 150.06375,66.84 C150.419583,67.2016667 150.848333,67.3825 151.35,67.3825 Z M155.34,87.21 C155.526667,87.21 155.62,87.0466667 155.62,86.72 C155.62,86.4283333 155.526667,86.2708333 155.34,86.2475 C154.325,86.1191667 153.674583,85.88 153.38875,85.53 C153.102917,85.18 152.96,84.4333333 152.96,83.29 L152.96,83.29 L152.96,77.795 C152.96,76.3483333 153.053333,74.3183333 153.24,71.705 C153.24,71.5183333 153.076667,71.425 152.75,71.425 C152.61,71.425 152.481667,71.495 152.365,71.635 C152.166667,71.8683333 151.676667,72.1629167 150.895,72.51875 C150.113333,72.8745833 149.11,73.21 147.885,73.525 C147.698333,73.525 147.605,73.665 147.605,73.945 C147.605,74.2483333 147.698333,74.4 147.885,74.4 C148.69,74.4933333 149.212083,74.6858333 149.45125,74.9775 C149.690417,75.2691667 149.81,75.8816667 149.81,76.815 L149.81,76.815 L149.81,83.29 C149.81,84.4333333 149.667083,85.18 149.38125,85.53 C149.095417,85.88 148.456667,86.1191667 147.465,86.2475 C147.278333,86.2708333 147.185,86.4283333 147.185,86.72 C147.185,87.0466667 147.278333,87.21 147.465,87.21 C147.943333,87.21 148.55,87.175 149.285,87.105 C150.101667,87.035 150.801667,87 151.385,87 C151.956667,87 152.6625,87.035 153.5025,87.105 C154.249167,87.175 154.861667,87.21 155.34,87.21 Z M162.62,87.735 C164.206667,87.735 165.56,87.2508333 166.68,86.2825 C167.8,85.3141667 168.36,84.1183333 168.36,82.695 C168.36,81.9016667 168.085833,81.19 167.5375,80.56 C166.989167,79.93 165.851667,79.1833333 164.125,78.32 C162.678333,77.5966667 161.739167,77.0075 161.3075,76.5525 C160.875833,76.0975 160.66,75.6016667 160.66,75.065 C160.66,73.4783333 161.57,72.685 163.39,72.685 C164.101667,72.685 164.714167,72.9504167 165.2275,73.48125 C165.740833,74.0120833 166.061667,74.7033333 166.19,75.555 C166.225,75.7416667 166.388333,75.835 166.68,75.835 C167.018333,75.835 167.1875,75.7475 167.1875,75.5725 C167.070833,74.6041667 166.995,73.4316667 166.96,72.055 C166.773333,72.055 166.376667,71.9966667 165.77,71.88 C164.673333,71.67 163.821667,71.565 163.215,71.565 C161.768333,71.565 160.514167,72.0054167 159.4525,72.88625 C158.390833,73.7670833 157.86,74.82 157.86,76.045 C157.86,77.0366667 158.142917,77.8883333 158.70875,78.6 C159.274583,79.3116667 160.438333,80.07 162.2,80.875 C163.541667,81.4933333 164.41375,82.0125 164.81625,82.4325 C165.21875,82.8525 165.42,83.3366667 165.42,83.885 C165.42,84.7483333 165.177917,85.4191667 164.69375,85.8975 C164.209583,86.3758333 163.53,86.615 162.655,86.615 C161.815,86.615 160.998333,86.2941667 160.205,85.6525 C159.411667,85.0108333 158.880833,84.2583333 158.6125,83.395 C158.554167,83.2083333 158.385,83.115 158.105,83.115 C157.766667,83.115 157.5975,83.2025 157.5975,83.3775 C157.935833,85.0458333 158.151667,86.2883333 158.245,87.105 C158.56,87.105 159.155,87.1925 160.03,87.3675 C161.196667,87.6125 162.06,87.735 162.62,87.735 Z M177.005,87.595 C178.09,87.595 179.067083,87.3470833 179.93625,86.85125 C180.805417,86.3554167 181.24,85.9616667 181.24,85.67 C181.24,85.53 181.202083,85.39875 181.12625,85.27625 C181.050417,85.15375 180.965833,85.0925 180.8725,85.0925 C180.079167,85.5475 179.198333,85.775 178.23,85.775 C176.666667,85.775 175.885,84.6783333 175.885,82.485 L175.885,82.485 L175.885,74.085 L181.1,74.225 C181.403333,74.225 181.555,73.91 181.555,73.28 C181.555,72.65 181.403333,72.335 181.1,72.335 L181.1,72.335 L175.955,72.335 L176.095,68.9925 C176.095,68.8058333 175.931667,68.7125 175.605,68.7125 C175.406667,68.7125 175.243333,68.8058333 175.115,68.9925 C173.913333,70.7308333 172.501667,72.0783333 170.88,73.035 C170.67,73.1516667 170.565,73.3266667 170.565,73.56 C170.565,73.8633333 170.693333,74.015 170.95,74.015 L170.95,74.015 L172.28,74.015 C172.56,74.015 172.7,74.1783333 172.7,74.505 L172.7,74.505 L172.63,83.01 L172.63,83.1675 C172.63,84.4975 173.026667,85.5679167 173.82,86.37875 C174.613333,87.1895833 175.675,87.595 177.005,87.595 Z M191.775,87.735 C194.178333,87.735 196.135417,86.9854167 197.64625,85.48625 C199.157083,83.9870833 199.9125,82.0766667 199.9125,79.755 C199.9125,77.3983333 199.154167,75.4441667 197.6375,73.8925 C196.120833,72.3408333 194.166667,71.565 191.775,71.565 C189.395,71.565 187.440833,72.34375 185.9125,73.90125 C184.384167,75.45875 183.62,77.41 183.62,79.755 C183.62,82.065 184.378333,83.9725 185.895,85.4775 C187.411667,86.9825 189.371667,87.735 191.775,87.735 Z M191.775,86.615 C190.328333,86.615 189.196667,85.99375 188.38,84.75125 C187.563333,83.50875 187.155,81.8316667 187.155,79.72 C187.155,77.5966667 187.569167,75.8933333 188.3975,74.61 C189.225833,73.3266667 190.351667,72.685 191.775,72.685 C193.21,72.685 194.33875,73.32375 195.16125,74.60125 C195.98375,75.87875 196.395,77.585 196.395,79.72 C196.395,81.855 195.986667,83.5379167 195.17,84.76875 C194.353333,85.9995833 193.221667,86.615 191.775,86.615 Z M210.57,87.21 C210.756667,87.21 210.85,87.0466667 210.85,86.72 C210.85,86.4283333 210.756667,86.2708333 210.57,86.2475 C209.426667,86.0958333 208.68,85.81875 208.33,85.41625 C207.98,85.01375 207.805,84.305 207.805,83.29 L207.805,83.29 L207.805,75.415 C208.61,74.5283333 209.391667,74.085 210.15,74.085 C210.441667,74.085 210.785833,74.2191667 211.1825,74.4875 C211.684167,74.8258333 212.191667,74.995 212.705,74.995 C213.113333,74.995 213.460417,74.8316667 213.74625,74.505 C214.032083,74.1783333 214.175,73.7816667 214.175,73.315 C214.175,72.8483333 213.9825,72.44 213.5975,72.09 C213.2125,71.74 212.751667,71.565 212.215,71.565 C211.55,71.565 210.882083,71.74 210.21125,72.09 C209.540417,72.44 208.738333,73.0466667 207.805,73.91 L207.805,73.91 L207.945,71.705 C207.945,71.5183333 207.781667,71.425 207.455,71.425 C207.315,71.425 207.175,71.495 207.035,71.635 C206.801667,71.8916667 206.30875,72.1979167 205.55625,72.55375 C204.80375,72.9095833 203.85,73.2333333 202.695,73.525 C202.508333,73.525 202.415,73.665 202.415,73.945 C202.415,74.2483333 202.508333,74.4 202.695,74.4 C203.523333,74.4933333 204.057083,74.6858333 204.29625,74.9775 C204.535417,75.2691667 204.655,75.8816667 204.655,76.815 L204.655,76.815 L204.655,83.29 C204.655,84.4333333 204.512083,85.18 204.22625,85.53 C203.940417,85.88 203.29,86.1191667 202.275,86.2475 C202.088333,86.2708333 201.995,86.4283333 201.995,86.72 C201.995,87.0466667 202.088333,87.21 202.275,87.21 C202.753333,87.21 203.365833,87.175 204.1125,87.105 C204.940833,87.035 205.646667,87 206.23,87 C206.801667,87 207.571667,87.035 208.54,87.105 C209.415,87.175 210.091667,87.21 210.57,87.21 Z M219.215,67.3825 C219.716667,67.3825 220.145417,67.2016667 220.50125,66.84 C220.857083,66.4783333 221.035,66.0525 221.035,65.5625 C221.035,65.0491667 220.857083,64.6175 220.50125,64.2675 C220.145417,63.9175 219.716667,63.7425 219.215,63.7425 C218.701667,63.7425 218.27,63.9175 217.92,64.2675 C217.57,64.6175 217.395,65.0491667 217.395,65.5625 C217.395,66.0525 217.572917,66.4783333 217.92875,66.84 C218.284583,67.2016667 218.713333,67.3825 219.215,67.3825 Z M223.205,87.21 C223.391667,87.21 223.485,87.0466667 223.485,86.72 C223.485,86.4283333 223.391667,86.2708333 223.205,86.2475 C222.19,86.1191667 221.539583,85.88 221.25375,85.53 C220.967917,85.18 220.825,84.4333333 220.825,83.29 L220.825,83.29 L220.825,77.795 C220.825,76.3483333 220.918333,74.3183333 221.105,71.705 C221.105,71.5183333 220.941667,71.425 220.615,71.425 C220.475,71.425 220.346667,71.495 220.23,71.635 C220.031667,71.8683333 219.541667,72.1629167 218.76,72.51875 C217.978333,72.8745833 216.975,73.21 215.75,73.525 C215.563333,73.525 215.47,73.665 215.47,73.945 C215.47,74.2483333 215.563333,74.4 215.75,74.4 C216.555,74.4933333 217.077083,74.6858333 217.31625,74.9775 C217.555417,75.2691667 217.675,75.8816667 217.675,76.815 L217.675,76.815 L217.675,83.29 C217.675,84.4333333 217.532083,85.18 217.24625,85.53 C216.960417,85.88 216.321667,86.1191667 215.33,86.2475 C215.143333,86.2708333 215.05,86.4283333 215.05,86.72 C215.05,87.0466667 215.143333,87.21 215.33,87.21 C215.808333,87.21 216.415,87.175 217.15,87.105 C217.966667,87.035 218.666667,87 219.25,87 C219.821667,87 220.5275,87.035 221.3675,87.105 C222.114167,87.175 222.726667,87.21 223.205,87.21 Z M232.795,87.735 C233.705,87.735 234.565417,87.5891667 235.37625,87.2975 C236.187083,87.0058333 236.93375,86.5741667 237.61625,86.0025 C238.29875,85.4308333 238.64,85.0283333 238.64,84.795 C238.64,84.6316667 238.590417,84.4829167 238.49125,84.34875 C238.392083,84.2145833 238.29,84.1475 238.185,84.1475 L238.185,84.1475 L238.0975,84.1825 C237.059167,85.2908333 235.653333,85.845 233.88,85.845 C232.316667,85.845 231.068333,85.2704167 230.135,84.12125 C229.201667,82.9720833 228.735,81.4583333 228.735,79.58 C228.735,77.3283333 229.105417,75.61625 229.84625,74.44375 C230.587083,73.27125 231.663333,72.685 233.075,72.685 C233.646667,72.685 234.110417,72.7929167 234.46625,73.00875 C234.822083,73.2245833 235.1575,73.6766667 235.4725,74.365 C235.740833,74.9483333 236.00625,75.3275 236.26875,75.5025 C236.53125,75.6775 236.866667,75.765 237.275,75.765 C238.231667,75.765 238.71,75.2866667 238.71,74.33 C238.71,73.5716667 238.164583,72.92125 237.07375,72.37875 C235.982917,71.83625 234.65,71.565 233.075,71.565 C230.94,71.565 229.09375,72.32625 227.53625,73.84875 C225.97875,75.37125 225.2,77.2933333 225.2,79.615 C225.2,81.96 225.94375,83.8995833 227.43125,85.43375 C228.91875,86.9679167 230.706667,87.735 232.795,87.735 Z M245.045,87.735 C247.063333,87.735 248.696667,87.0933333 249.945,85.81 C250.12,86.3583333 250.449583,86.7929167 250.93375,87.11375 C251.417917,87.4345833 251.986667,87.595 252.64,87.595 C253.468333,87.595 254.235417,87.35 254.94125,86.86 C255.647083,86.37 256,85.9558333 256,85.6175 C256,85.4775 255.959167,85.34625 255.8775,85.22375 C255.795833,85.10125 255.708333,85.04 255.615,85.04 L255.615,85.04 L255.4925,85.075 C254.979167,85.5416667 254.53,85.775 254.145,85.775 C253.351667,85.775 252.955,85.1625 252.955,83.9375 L252.955,83.9375 L252.955,83.815 L253.2,75.905 L253.2,75.695 C253.2,74.435 252.809167,73.4316667 252.0275,72.685 C251.245833,71.9383333 250.225,71.565 248.965,71.565 C247.565,71.565 246.048333,72.0579167 244.415,73.04375 C242.781667,74.0295833 241.965,74.9716667 241.965,75.87 C241.965,76.2433333 242.081667,76.5408333 242.315,76.7625 C242.548333,76.9841667 242.851667,77.095 243.225,77.095 C243.855,77.095 244.359583,76.885 244.73875,76.465 C245.117917,76.045 245.313333,75.4616667 245.325,74.715 C245.336667,74.2133333 245.581667,73.79625 246.06,73.46375 C246.538333,73.13125 247.121667,72.965 247.81,72.965 C248.498333,72.965 249.049583,73.2129167 249.46375,73.70875 C249.877917,74.2045833 250.085,74.8725 250.085,75.7125 L250.085,75.7125 L250.085,75.8 L249.98,78.53 C244.31,80.0116667 241.475,81.9483333 241.475,84.34 C241.475,85.3083333 241.8075,86.11625 242.4725,86.76375 C243.1375,87.41125 243.995,87.735 245.045,87.735 Z M246.76,86.02 C245.476667,86.02 244.835,85.1916667 244.835,83.535 C244.835,81.7616667 246.538333,80.49 249.945,79.72 L249.945,79.72 L249.805,84.41 C249.595,84.865 249.189583,85.2470833 248.58875,85.55625 C247.987917,85.8654167 247.378333,86.02 246.76,86.02 Z M264.4,87.175 C264.586667,87.175 264.68,87.0116667 264.68,86.685 C264.68,86.3933333 264.586667,86.2358333 264.4,86.2125 C263.396667,86.0958333 262.749167,85.8595833 262.4575,85.50375 C262.165833,85.1479167 262.02,84.3983333 262.02,83.255 L262.02,83.255 L262.02,67.9775 C262.02,66.5308333 262.113333,64.5008333 262.3,61.8875 C262.3,61.7008333 262.136667,61.6075 261.81,61.6075 C261.67,61.6075 261.541667,61.6716667 261.425,61.8 C261.226667,62.045 260.736667,62.3454167 259.955,62.70125 C259.173333,63.0570833 258.17,63.3925 256.945,63.7075 C256.758333,63.7075 256.665,63.8475 256.665,64.1275 C256.665,64.3958333 256.758333,64.5416667 256.945,64.565 C257.785,64.6583333 258.321667,64.8508333 258.555,65.1425 C258.788333,65.4341667 258.905,66.0525 258.905,66.9975 L258.905,66.9975 L258.905,83.255 C258.905,84.3983333 258.75625,85.1479167 258.45875,85.50375 C258.16125,85.8595833 257.516667,86.0958333 256.525,86.2125 C256.338333,86.2358333 256.245,86.3933333 256.245,86.685 C256.245,87.0116667 256.338333,87.175 256.525,87.175 C257.003333,87.175 257.615833,87.1458333 258.3625,87.0875 C259.190833,87.0291667 259.885,87 260.445,87 C261.016667,87 261.7225,87.0291667 262.5625,87.0875 C263.309167,87.1458333 263.921667,87.175 264.4,87.175 Z M282.39,87.77 C284.735,87.77 286.595833,87.0845833 287.9725,85.71375 C289.349167,84.3429167 290.0375,82.4966667 290.0375,80.175 C290.0375,78.9733333 289.640833,77.8708333 288.8475,76.8675 C288.054167,75.8641667 286.38,74.6158333 283.825,73.1225 C281.666667,71.8625 280.26375,70.85625 279.61625,70.10375 C278.96875,69.35125 278.645,68.5608333 278.645,67.7325 C278.645,66.4258333 279.03,65.3875 279.8,64.6175 C280.57,63.8475 281.608333,63.4625 282.915,63.4625 C284.291667,63.4625 285.370833,63.8475 286.1525,64.6175 C286.934167,65.3875 287.5175,66.6475 287.9025,68.3975 C287.9375,68.5841667 288.118333,68.6775 288.445,68.6775 C288.748333,68.6775 288.9,68.5841667 288.9,68.3975 C288.666667,66.8341667 288.48,65.0258333 288.34,62.9725 C287.616667,62.9725 286.759167,62.8733333 285.7675,62.675 C284.705833,62.4533333 283.766667,62.3425 282.95,62.3425 C280.791667,62.3425 279.009583,62.99875 277.60375,64.31125 C276.197917,65.62375 275.495,67.2308333 275.495,69.1325 C275.495,70.3691667 275.885833,71.495 276.6675,72.51 C277.449167,73.525 279.105833,74.7616667 281.6375,76.22 C283.8425,77.5033333 285.283333,78.5504167 285.96,79.36125 C286.636667,80.1720833 286.975,81.05 286.975,81.995 C286.975,83.465 286.587083,84.6083333 285.81125,85.425 C285.035417,86.2416667 283.941667,86.65 282.53,86.65 C280.756667,86.65 279.38,86.2066667 278.4,85.32 C277.42,84.4333333 276.615,82.905 275.985,80.735 C275.926667,80.5483333 275.775,80.455 275.53,80.455 C275.18,80.455 275.005,80.5483333 275.005,80.735 C275.215,82.7183333 275.355,84.7016667 275.425,86.685 C276.265,86.685 277.344167,86.86 278.6625,87.21 C280.109167,87.5833333 281.351667,87.77 282.39,87.77 Z M299.96,87.175 C300.146667,87.175 300.24,87.0116667 300.24,86.685 C300.24,86.3933333 300.146667,86.2358333 299.96,86.2125 C298.956667,86.0958333 298.309167,85.8595833 298.0175,85.50375 C297.725833,85.1479167 297.58,84.3983333 297.58,83.255 L297.58,83.255 L297.58,67.9775 C297.58,66.5308333 297.673333,64.5008333 297.86,61.8875 C297.86,61.7008333 297.696667,61.6075 297.37,61.6075 C297.23,61.6075 297.101667,61.6716667 296.985,61.8 C296.786667,62.045 296.296667,62.3454167 295.515,62.70125 C294.733333,63.0570833 293.73,63.3925 292.505,63.7075 C292.318333,63.7075 292.225,63.8475 292.225,64.1275 C292.225,64.3958333 292.318333,64.5416667 292.505,64.565 C293.345,64.6583333 293.881667,64.8508333 294.115,65.1425 C294.348333,65.4341667 294.465,66.0525 294.465,66.9975 L294.465,66.9975 L294.465,83.255 C294.465,84.3983333 294.31625,85.1479167 294.01875,85.50375 C293.72125,85.8595833 293.076667,86.0958333 292.085,86.2125 C291.898333,86.2358333 291.805,86.3933333 291.805,86.685 C291.805,87.0116667 291.898333,87.175 292.085,87.175 C292.563333,87.175 293.175833,87.1458333 293.9225,87.0875 C294.750833,87.0291667 295.445,87 296.005,87 C296.576667,87 297.2825,87.0291667 298.1225,87.0875 C298.869167,87.1458333 299.481667,87.175 299.96,87.175 Z M305.28,87.735 C307.298333,87.735 308.931667,87.0933333 310.18,85.81 C310.355,86.3583333 310.684583,86.7929167 311.16875,87.11375 C311.652917,87.4345833 312.221667,87.595 312.875,87.595 C313.703333,87.595 314.470417,87.35 315.17625,86.86 C315.882083,86.37 316.235,85.9558333 316.235,85.6175 C316.235,85.4775 316.194167,85.34625 316.1125,85.22375 C316.030833,85.10125 315.943333,85.04 315.85,85.04 L315.85,85.04 L315.7275,85.075 C315.214167,85.5416667 314.765,85.775 314.38,85.775 C313.586667,85.775 313.19,85.1625 313.19,83.9375 L313.19,83.9375 L313.19,83.815 L313.435,75.905 L313.435,75.695 C313.435,74.435 313.044167,73.4316667 312.2625,72.685 C311.480833,71.9383333 310.46,71.565 309.2,71.565 C307.8,71.565 306.283333,72.0579167 304.65,73.04375 C303.016667,74.0295833 302.2,74.9716667 302.2,75.87 C302.2,76.2433333 302.316667,76.5408333 302.55,76.7625 C302.783333,76.9841667 303.086667,77.095 303.46,77.095 C304.09,77.095 304.594583,76.885 304.97375,76.465 C305.352917,76.045 305.548333,75.4616667 305.56,74.715 C305.571667,74.2133333 305.816667,73.79625 306.295,73.46375 C306.773333,73.13125 307.356667,72.965 308.045,72.965 C308.733333,72.965 309.284583,73.2129167 309.69875,73.70875 C310.112917,74.2045833 310.32,74.8725 310.32,75.7125 L310.32,75.7125 L310.32,75.8 L310.215,78.53 C304.545,80.0116667 301.71,81.9483333 301.71,84.34 C301.71,85.3083333 302.0425,86.11625 302.7075,86.76375 C303.3725,87.41125 304.23,87.735 305.28,87.735 Z M306.995,86.02 C305.711667,86.02 305.07,85.1916667 305.07,83.535 C305.07,81.7616667 306.773333,80.49 310.18,79.72 L310.18,79.72 L310.04,84.41 C309.83,84.865 309.424583,85.2470833 308.82375,85.55625 C308.222917,85.8654167 307.613333,86.02 306.995,86.02 Z M323.655,87.77 C323.853333,87.77 323.993333,87.6766667 324.075,87.49 L324.075,87.49 L329.0975,76.045 C329.599167,74.9133333 330.01625,74.1666667 330.34875,73.805 C330.68125,73.4433333 331.3375,73.21 332.3175,73.105 C332.504167,73.0816667 332.5975,72.9183333 332.5975,72.615 C332.5975,72.2883333 332.504167,72.125 332.3175,72.125 C331.874167,72.125 331.290833,72.1658333 330.5675,72.2475 C330.0425,72.3058333 329.663333,72.335 329.43,72.335 C328.975,72.335 328.461667,72.3 327.89,72.23 C327.283333,72.16 326.735,72.125 326.245,72.125 C326.058333,72.125 325.965,72.2883333 325.965,72.615 C325.965,72.9066667 326.058333,73.0641667 326.245,73.0875 C326.91,73.1808333 327.37375,73.30625 327.63625,73.46375 C327.89875,73.62125 328.03,73.8516667 328.03,74.155 C328.03,74.54 327.855,75.17 327.505,76.045 L327.505,76.045 L324.6,83.465 L321.73,76.0275 C321.38,75.1408333 321.205,74.5166667 321.205,74.155 C321.205,73.8516667 321.339167,73.62125 321.6075,73.46375 C321.875833,73.30625 322.36,73.1808333 323.06,73.0875 C323.246667,73.0641667 323.34,72.9066667 323.34,72.615 C323.34,72.2883333 323.246667,72.125 323.06,72.125 C322.581667,72.125 321.980833,72.16 321.2575,72.23 C320.440833,72.3 319.746667,72.335 319.175,72.335 C318.615,72.335 317.95,72.3 317.18,72.23 C316.468333,72.16 315.873333,72.125 315.395,72.125 C315.208333,72.125 315.115,72.2883333 315.115,72.615 C315.115,72.9066667 315.208333,73.0641667 315.395,73.0875 C316.153333,73.1925 316.754167,73.4433333 317.1975,73.84 C317.640833,74.2366667 318.078333,74.9716667 318.51,76.045 L318.51,76.045 L323.2175,87.49 C323.299167,87.6766667 323.445,87.77 323.655,87.77 Z M340.595,87.735 C341.551667,87.735 342.4675,87.5308333 343.3425,87.1225 C344.2175,86.7141667 345.028333,86.1220833 345.775,85.34625 C346.521667,84.5704167 346.895,84.06 346.895,83.815 C346.895,83.64 346.845417,83.4883333 346.74625,83.36 C346.647083,83.2316667 346.545,83.1675 346.44,83.1675 L346.44,83.1675 L346.3525,83.2025 C345.839167,83.8908333 345.1625,84.4566667 344.3225,84.9 C343.4825,85.3433333 342.648333,85.565 341.82,85.565 C340.175,85.565 338.90625,85.0604167 338.01375,84.05125 C337.12125,83.0420833 336.675,81.5983333 336.675,79.72 C336.675,79.0433333 336.71,78.39 336.78,77.76 L336.78,77.76 L346.37,77.76 C346.79,77.76 347,77.5966667 347,77.27 C347,75.835 346.384583,74.5254167 345.15375,73.34125 C343.922917,72.1570833 342.403333,71.565 340.595,71.565 C338.436667,71.565 336.654583,72.3583333 335.24875,73.945 C333.842917,75.5316667 333.14,77.4683333 333.14,79.755 C333.14,81.995 333.8575,83.885 335.2925,85.425 C336.7275,86.965 338.495,87.735 340.595,87.735 Z M336.92,76.78 C337.153333,75.555 337.599583,74.56625 338.25875,73.81375 C338.917917,73.06125 339.696667,72.685 340.595,72.685 C341.54,72.685 342.312917,72.97375 342.91375,73.55125 C343.514583,74.12875 343.815,74.855 343.815,75.73 C343.815,76.0683333 343.660417,76.3016667 343.35125,76.43 C343.042083,76.5583333 342.52,76.6283333 341.785,76.64 L341.785,76.64 L336.92,76.78 Z M375.1225,87.21 C375.309167,87.21 375.4025,87.0466667 375.4025,86.72 C375.4025,86.4283333 375.309167,86.2708333 375.1225,86.2475 C374.154167,86.1308333 373.410417,85.97625 372.89125,85.78375 C372.372083,85.59125 372.010417,85.32875 371.80625,84.99625 C371.602083,84.66375 371.5,84.095 371.5,83.29 L371.5,83.29 L371.5,65.5275 C371.5,65.0141667 371.605,64.6641667 371.815,64.4775 C372.025,64.2908333 372.415833,64.1975 372.9875,64.1975 L372.9875,64.1975 L374.6325,64.1975 C376.464167,64.1975 377.846667,64.53875 378.78,65.22125 C379.713333,65.90375 380.430833,67.0675 380.9325,68.7125 C380.979167,68.8758333 381.095833,68.9575 381.2825,68.9575 C381.7025,68.9575 381.9125,68.8466667 381.9125,68.625 C381.375833,66.1166667 381.025833,64.1041667 380.8625,62.5875 C379.275833,62.9141667 375.571667,63.0775 369.75,63.0775 L369.255004,63.0770761 C363.868335,63.0677509 360.405,62.9045588 358.865,62.5875 C358.281667,64.8158333 357.663333,66.8108333 357.01,68.5725 C357.01,68.8291667 357.208333,68.9575 357.605,68.9575 C357.803333,68.9575 357.931667,68.87 357.99,68.695 C358.398333,67.365 359.273333,66.2829167 360.615,65.44875 C361.956667,64.6145833 363.45,64.1975 365.095,64.1975 L365.095,64.1975 L366.46,64.1975 C367.043333,64.1975 367.44,64.2908333 367.65,64.4775 C367.86,64.6641667 367.965,65.0141667 367.965,65.5275 L367.965,65.5275 L367.965,83.29 C367.965,84.375 367.71125,85.0983333 367.20375,85.46 C366.69625,85.8216667 365.736667,86.0841667 364.325,86.2475 C364.138333,86.2708333 364.045,86.4283333 364.045,86.72 C364.045,87.0466667 364.138333,87.21 364.325,87.21 C365.106667,87.21 366.04,87.175 367.125,87.105 C368.163333,87.035 369.038333,87 369.75,87 C370.438333,87 371.295833,87.035 372.3225,87.105 C373.4075,87.175 374.340833,87.21 375.1225,87.21 Z M391.345,87.21 C391.531667,87.21 391.625,87.0466667 391.625,86.72 C391.625,86.4283333 391.531667,86.2708333 391.345,86.2475 C390.201667,86.0958333 389.455,85.81875 389.105,85.41625 C388.755,85.01375 388.58,84.305 388.58,83.29 L388.58,83.29 L388.58,75.415 C389.385,74.5283333 390.166667,74.085 390.925,74.085 C391.216667,74.085 391.560833,74.2191667 391.9575,74.4875 C392.459167,74.8258333 392.966667,74.995 393.48,74.995 C393.888333,74.995 394.235417,74.8316667 394.52125,74.505 C394.807083,74.1783333 394.95,73.7816667 394.95,73.315 C394.95,72.8483333 394.7575,72.44 394.3725,72.09 C393.9875,71.74 393.526667,71.565 392.99,71.565 C392.325,71.565 391.657083,71.74 390.98625,72.09 C390.315417,72.44 389.513333,73.0466667 388.58,73.91 L388.58,73.91 L388.72,71.705 C388.72,71.5183333 388.556667,71.425 388.23,71.425 C388.09,71.425 387.95,71.495 387.81,71.635 C387.576667,71.8916667 387.08375,72.1979167 386.33125,72.55375 C385.57875,72.9095833 384.625,73.2333333 383.47,73.525 C383.283333,73.525 383.19,73.665 383.19,73.945 C383.19,74.2483333 383.283333,74.4 383.47,74.4 C384.298333,74.4933333 384.832083,74.6858333 385.07125,74.9775 C385.310417,75.2691667 385.43,75.8816667 385.43,76.815 L385.43,76.815 L385.43,83.29 C385.43,84.4333333 385.287083,85.18 385.00125,85.53 C384.715417,85.88 384.065,86.1191667 383.05,86.2475 C382.863333,86.2708333 382.77,86.4283333 382.77,86.72 C382.77,87.0466667 382.863333,87.21 383.05,87.21 C383.528333,87.21 384.140833,87.175 384.8875,87.105 C385.715833,87.035 386.421667,87 387.005,87 C387.576667,87 388.346667,87.035 389.315,87.105 C390.19,87.175 390.866667,87.21 391.345,87.21 Z M399.85,87.735 C401.868333,87.735 403.501667,87.0933333 404.75,85.81 C404.925,86.3583333 405.254583,86.7929167 405.73875,87.11375 C406.222917,87.4345833 406.791667,87.595 407.445,87.595 C408.273333,87.595 409.040417,87.35 409.74625,86.86 C410.452083,86.37 410.805,85.9558333 410.805,85.6175 C410.805,85.4775 410.764167,85.34625 410.6825,85.22375 C410.600833,85.10125 410.513333,85.04 410.42,85.04 L410.42,85.04 L410.2975,85.075 C409.784167,85.5416667 409.335,85.775 408.95,85.775 C408.156667,85.775 407.76,85.1625 407.76,83.9375 L407.76,83.9375 L407.76,83.815 L408.005,75.905 L408.005,75.695 C408.005,74.435 407.614167,73.4316667 406.8325,72.685 C406.050833,71.9383333 405.03,71.565 403.77,71.565 C402.37,71.565 400.853333,72.0579167 399.22,73.04375 C397.586667,74.0295833 396.77,74.9716667 396.77,75.87 C396.77,76.2433333 396.886667,76.5408333 397.12,76.7625 C397.353333,76.9841667 397.656667,77.095 398.03,77.095 C398.66,77.095 399.164583,76.885 399.54375,76.465 C399.922917,76.045 400.118333,75.4616667 400.13,74.715 C400.141667,74.2133333 400.386667,73.79625 400.865,73.46375 C401.343333,73.13125 401.926667,72.965 402.615,72.965 C403.303333,72.965 403.854583,73.2129167 404.26875,73.70875 C404.682917,74.2045833 404.89,74.8725 404.89,75.7125 L404.89,75.7125 L404.89,75.8 L404.785,78.53 C399.115,80.0116667 396.28,81.9483333 396.28,84.34 C396.28,85.3083333 396.6125,86.11625 397.2775,86.76375 C397.9425,87.41125 398.8,87.735 399.85,87.735 Z M401.565,86.02 C400.281667,86.02 399.64,85.1916667 399.64,83.535 C399.64,81.7616667 401.343333,80.49 404.75,79.72 L404.75,79.72 L404.61,84.41 C404.4,84.865 403.994583,85.2470833 403.39375,85.55625 C402.792917,85.8654167 402.183333,86.02 401.565,86.02 Z M424.105,87.875 C424.221667,87.875 424.408333,87.8108333 424.665,87.6825 C425.155,87.4375 425.8375,87.1925 426.7125,86.9475 C427.5875,86.7025 428.3575,86.5391667 429.0225,86.4575 C429.209167,86.4341667 429.3025,86.3 429.3025,86.055 C429.3025,85.7516667 429.209167,85.6 429.0225,85.6 C428.1825,85.4833333 427.645833,85.2879167 427.4125,85.01375 C427.179167,84.7395833 427.0625,84.2 427.0625,83.395 L427.0625,83.395 L427.0625,67.9775 C427.0625,66.4608333 427.155833,64.4308333 427.3425,61.8875 C427.3425,61.7008333 427.179167,61.6075 426.8525,61.6075 C426.724167,61.6075 426.601667,61.6658333 426.485,61.7825 C426.205,62.0625 425.6625,62.3833333 424.8575,62.745 C424.0525,63.1066667 423.101667,63.4158333 422.005,63.6725 C421.818333,63.6725 421.725,63.8241667 421.725,64.1275 C421.725,64.3958333 421.818333,64.5416667 422.005,64.565 C422.845,64.6583333 423.381667,64.8508333 423.615,65.1425 C423.848333,65.4341667 423.965,66.0525 423.965,66.9975 L423.965,66.9975 L423.965,72.825 C422.821667,71.985 421.573333,71.565 420.22,71.565 C417.851667,71.565 415.882917,72.32625 414.31375,73.84875 C412.744583,75.37125 411.96,77.3633333 411.96,79.825 C411.96,81.995 412.66875,83.8558333 414.08625,85.4075 C415.50375,86.9591667 417.221667,87.735 419.24,87.735 C421.153333,87.735 422.728333,87.0583333 423.965,85.705 L423.965,85.705 L423.825,87.595 C423.825,87.7816667 423.918333,87.875 424.105,87.875 Z M419.94,86.44 C418.61,86.44 417.536667,85.8158333 416.72,84.5675 C415.903333,83.3191667 415.495,81.75 415.495,79.86 C415.495,75.0766667 417.198333,72.685 420.605,72.685 C421.433333,72.685 422.200417,72.9533333 422.90625,73.49 C423.612083,74.0266667 423.965,74.5983333 423.965,75.205 L423.965,75.205 L423.965,84.165 C423.276667,84.9933333 422.623333,85.5795833 422.005,85.92375 C421.386667,86.2679167 420.698333,86.44 419.94,86.44 Z M438.21,87.735 C439.166667,87.735 440.0825,87.5308333 440.9575,87.1225 C441.8325,86.7141667 442.643333,86.1220833 443.39,85.34625 C444.136667,84.5704167 444.51,84.06 444.51,83.815 C444.51,83.64 444.460417,83.4883333 444.36125,83.36 C444.262083,83.2316667 444.16,83.1675 444.055,83.1675 L444.055,83.1675 L443.9675,83.2025 C443.454167,83.8908333 442.7775,84.4566667 441.9375,84.9 C441.0975,85.3433333 440.263333,85.565 439.435,85.565 C437.79,85.565 436.52125,85.0604167 435.62875,84.05125 C434.73625,83.0420833 434.29,81.5983333 434.29,79.72 C434.29,79.0433333 434.325,78.39 434.395,77.76 L434.395,77.76 L443.985,77.76 C444.405,77.76 444.615,77.5966667 444.615,77.27 C444.615,75.835 443.999583,74.5254167 442.76875,73.34125 C441.537917,72.1570833 440.018333,71.565 438.21,71.565 C436.051667,71.565 434.269583,72.3583333 432.86375,73.945 C431.457917,75.5316667 430.755,77.4683333 430.755,79.755 C430.755,81.995 431.4725,83.885 432.9075,85.425 C434.3425,86.965 436.11,87.735 438.21,87.735 Z M434.535,76.78 C434.768333,75.555 435.214583,74.56625 435.87375,73.81375 C436.532917,73.06125 437.311667,72.685 438.21,72.685 C439.155,72.685 439.927917,72.97375 440.52875,73.55125 C441.129583,74.12875 441.43,74.855 441.43,75.73 C441.43,76.0683333 441.275417,76.3016667 440.96625,76.43 C440.657083,76.5583333 440.135,76.6283333 439.4,76.64 L439.4,76.64 L434.535,76.78 Z"
           id="PeoplesoftheHistoricalSlaveTrade"
           fill="#FBF9F5"
           style="fill:#000000;fill-opacity:1" />
        <path
           d="M91,-0.0625 C91.5128358,-0.0625 91.9355072,0.32354019 91.9932723,0.820878875 L92,0.9375 L92,108.5 C92,109.052285 91.5522847,109.5 91,109.5 C90.4871642,109.5 90.0644928,109.11396 90.0067277,108.616621 L90,108.5 L90,0.9375 C90,0.38521525 90.4477153,-0.0625 91,-0.0625 Z"
           id="Line"
           fill="#FBF9F5"
           style="fill:#000000;fill-opacity:1" />
      </g>
    </g>
  </g>
</svg>
