<?xml version="1.0" standalone="no"?>
<!DOCTYPE svg PUBLIC "-//W3C//DTD SVG 20010904//EN"
 "http://www.w3.org/TR/2001/REC-SVG-20010904/DTD/svg10.dtd">
<svg version="1.0" xmlns="http://www.w3.org/2000/svg"
 width="1053.000000pt" height="745.000000pt" viewBox="0 0 1053.000000 745.000000"
 preserveAspectRatio="xMidYMid meet">
<metadata>
Created by potrace 1.16, written by Peter Selinger 2001-2019
</metadata>
<g transform="translate(0.000000,745.000000) scale(0.100000,-0.100000)"
fill="#000000" stroke="none">
<path d="M1690 7043 c-14 -2 -61 -11 -105 -20 -236 -46 -510 -183 -701 -351
l-49 -43 145 -139 c80 -77 149 -140 154 -140 6 0 20 10 33 22 l23 21 0 -581
c0 -320 -3 -582 -6 -582 -3 0 -20 12 -37 26 l-31 26 -137 -144 c-76 -78 -138
-147 -138 -153 -1 -5 25 -31 57 -56 182 -147 427 -262 672 -315 106 -24 466
-27 540 -6 216 63 430 242 790 661 l175 203 30 -34 c260 -292 413 -444 584
-581 358 -284 728 -418 1069 -386 412 39 757 285 1204 861 44 57 83 104 86
105 4 1 36 -35 72 -79 94 -118 392 -415 485 -484 163 -121 321 -201 484 -245
98 -27 347 -37 459 -19 235 38 451 155 638 345 84 85 194 226 260 333 21 34
41 62 44 62 3 0 24 -37 47 -83 154 -300 353 -557 523 -673 85 -59 282 -145
297 -131 3 4 93 374 93 386 0 5 -21 16 -47 26 -189 72 -346 269 -575 725 l-97
195 70 133 c39 74 99 183 135 242 l64 109 0 240 0 241 140 0 140 0 0 -89 0
-89 53 29 c28 16 59 29 67 29 42 1 41 11 -4 209 -24 105 -46 194 -49 197 -11
12 -166 -48 -245 -94 -110 -63 -208 -148 -300 -257 -82 -97 -190 -256 -254
-372 -22 -40 -43 -73 -46 -73 -4 0 -30 37 -57 82 -237 391 -521 621 -850 689
-115 24 -315 25 -423 3 -349 -72 -647 -294 -1024 -766 l-110 -136 -126 151
c-334 399 -615 620 -911 716 -240 79 -510 72 -779 -18 -316 -106 -691 -376
-1037 -749 l-100 -107 -136 170 c-412 514 -626 699 -865 750 -64 14 -328 19
-394 8z m2780 -354 l0 -71 32 6 c64 13 195 17 241 8 l47 -9 0 68 0 69 140 0
140 0 0 -127 1 -128 59 -40 c32 -22 102 -78 154 -125 l96 -85 0 -491 0 -492
-87 -83 c-162 -153 -305 -244 -453 -290 -100 -31 -259 -31 -373 -1 -159 43
-328 132 -496 263 l-91 70 0 539 0 540 73 53 c39 30 106 74 147 99 l75 45 3
127 3 126 144 0 145 0 0 -71z m-2670 -869 l0 -820 -37 0 c-45 0 -158 23 -225
46 l-48 16 0 753 0 754 54 20 c63 23 177 49 224 50 l32 1 0 -820z m5775 783
c28 -8 78 -31 113 -50 l62 -34 0 -699 0 -699 -46 -27 c-53 -31 -151 -68 -206
-78 l-38 -7 0 811 0 812 33 -7 c17 -3 55 -13 82 -22z m-420 -1561 c-9 -9 -133
49 -205 95 l-70 45 0 628 0 629 83 55 c46 31 108 66 138 80 l54 23 3 -775 c1
-426 0 -777 -3 -780z m-4959 1470 c43 -38 105 -98 137 -134 l57 -66 0 -499 0
-499 -102 -100 c-98 -95 -167 -154 -181 -154 -4 0 -7 342 -7 760 0 418 4 760
9 760 4 0 44 -31 87 -68z m6484 -444 c-1 -154 -2 -161 -17 -133 -8 17 -45 86
-82 155 -36 69 -67 128 -69 133 -2 4 35 7 82 7 l86 0 0 -162z m-526 -51 c31
-54 70 -125 86 -158 l30 -59 -66 -118 c-37 -64 -86 -146 -110 -182 l-44 -65 0
375 0 375 24 -35 c13 -19 49 -79 80 -133z m-1594 -223 l0 -315 -51 58 c-28 32
-86 101 -129 154 l-79 96 97 124 c109 141 156 199 160 199 1 0 2 -142 2 -316z
m-2982 -141 l-3 -127 -110 127 c-60 70 -111 131 -113 135 -1 5 48 62 110 127
l113 118 3 -126 c1 -70 1 -184 0 -254z m-823 216 l57 -70 -53 -62 c-29 -34
-56 -66 -61 -71 -4 -6 -8 54 -8 132 0 78 2 142 4 142 2 0 29 -32 61 -71z"/>
<path d="M1190 3180 l0 -1170 150 0 150 0 0 1170 0 1170 -150 0 -150 0 0
-1170z"/>
<path d="M1800 3180 l0 -1170 450 0 450 0 0 1170 0 1170 -450 0 -450 0 0
-1170z"/>
<path d="M2980 3180 l0 -1170 455 0 455 0 0 1170 0 1170 -455 0 -455 0 0
-1170z"/>
<path d="M5370 3180 l0 -1170 455 0 455 0 0 1170 0 1170 -455 0 -455 0 0
-1170z"/>
<path d="M6560 3180 l0 -1170 160 0 160 0 0 1170 0 1170 -160 0 -160 0 0
-1170z"/>
<path d="M7160 3180 l0 -1170 455 0 455 0 0 1170 0 1170 -455 0 -455 0 0
-1170z"/>
<path d="M1180 1461 c0 -5 99 -238 221 -518 121 -279 223 -514 226 -520 3 -9
27 -13 67 -13 l61 0 155 329 c85 181 157 327 161 326 3 -2 75 -150 160 -329
l154 -326 61 0 c40 0 64 4 67 13 3 6 103 237 222 512 120 275 220 508 222 518
5 16 -5 17 -138 15 l-143 -3 -115 -272 c-64 -150 -118 -273 -121 -273 -3 0
-63 123 -132 273 l-127 272 -111 0 -111 0 -127 -272 c-69 -150 -129 -273 -132
-273 -3 0 -58 123 -122 273 l-116 272 -141 3 c-86 1 -141 -1 -141 -7z"/>
<path d="M3080 945 l0 -525 135 0 135 0 0 525 0 525 -135 0 -135 0 0 -525z"/>
<path d="M3580 945 l0 -525 130 0 130 0 0 241 0 240 203 -240 202 -241 168 0
c92 0 167 2 167 5 0 3 -102 127 -226 276 -151 182 -224 275 -220 286 4 8 75
115 159 237 85 121 157 227 161 234 6 9 -25 12 -142 12 l-149 0 -159 -226
-159 -226 -3 226 -2 226 -130 0 -130 0 0 -525z"/>
<path d="M4680 945 l0 -525 135 0 135 0 0 525 0 525 -135 0 -135 0 0 -525z"/>
<path d="M5180 946 l0 -526 239 0 c316 0 420 15 541 75 185 93 281 296 250
530 -27 200 -155 351 -355 416 -65 21 -91 23 -372 27 l-303 4 0 -526z m533
309 c149 -39 222 -141 222 -310 0 -76 -4 -99 -26 -145 -62 -132 -162 -180
-376 -180 l-93 0 0 325 0 325 108 0 c63 0 131 -6 165 -15z"/>
<path d="M6611 1447 c-5 -12 -98 -243 -206 -512 -109 -270 -200 -496 -202
-502 -4 -10 28 -13 139 -13 l143 0 40 105 39 105 227 0 226 0 43 -105 43 -105
144 0 c79 0 143 3 143 8 0 4 -103 239 -229 522 l-229 515 -156 3 c-155 2 -156
2 -165 -21z m247 -435 c39 -97 72 -180 72 -184 0 -5 -66 -8 -146 -8 -113 0
-145 3 -142 13 31 89 134 357 138 357 3 0 38 -80 78 -178z"/>
<path d="M7250 1370 l0 -100 185 0 185 0 0 -425 0 -425 135 0 135 0 0 425 0
425 190 0 190 0 0 100 0 100 -510 0 -510 0 0 -100z"/>
<path d="M8537 1463 c-8 -13 -417 -1031 -417 -1037 0 -3 64 -6 143 -6 l142 0
39 105 38 105 227 0 226 0 43 -105 44 -105 145 0 c134 0 145 1 138 18 -3 9
-108 245 -232 525 l-225 507 -154 0 c-84 0 -155 -3 -157 -7z m242 -461 c39
-95 71 -175 71 -177 0 -8 -290 -6 -290 3 -1 20 135 361 141 355 4 -5 39 -86
78 -181z"/>
</g>
</svg>
