<?xml version="1.0" encoding="UTF-8" standalone="no"?>
<svg
   xmlns:dc="http://purl.org/dc/elements/1.1/"
   xmlns:cc="http://creativecommons.org/ns#"
   xmlns:rdf="http://www.w3.org/1999/02/22-rdf-syntax-ns#"
   xmlns:svg="http://www.w3.org/2000/svg"
   xmlns="http://www.w3.org/2000/svg"
   xmlns:xlink="http://www.w3.org/1999/xlink"
   xmlns:sodipodi="http://sodipodi.sourceforge.net/DTD/sodipodi-0.dtd"
   xmlns:inkscape="http://www.inkscape.org/namespaces/inkscape"
   id="svg42"
   version="1.1"
   viewBox="0 0 757.68054 143.96976"
   height="143.96976"
   width="757.68054"
   sodipodi:docname="openrefine.svg"
   inkscape:version="0.92.5 (2060ec1f9f, 2020-04-08)">
  <sodipodi:namedview
     pagecolor="#ffffff"
     bordercolor="#666666"
     borderopacity="1"
     objecttolerance="10"
     gridtolerance="10"
     guidetolerance="10"
     inkscape:pageopacity="0"
     inkscape:pageshadow="2"
     inkscape:window-width="1902"
     inkscape:window-height="1053"
     id="namedview33"
     showgrid="false"
     inkscape:zoom="2.6728333"
     inkscape:cx="121.67404"
     inkscape:cy="0.17254021"
     inkscape:window-x="0"
     inkscape:window-y="27"
     inkscape:window-maximized="0"
     inkscape:current-layer="svg42" />
  <metadata
     id="metadata46">
    <rdf:RDF>
      <cc:Work
         rdf:about="">
        <dc:format>image/svg+xml</dc:format>
        <dc:type
           rdf:resource="http://purl.org/dc/dcmitype/StillImage" />
        <dc:title>Page 1</dc:title>
      </cc:Work>
    </rdf:RDF>
  </metadata>
  <!-- Generator: Sketch 48.2 (47327) - http://www.bohemiancoding.com/sketch -->
  <title
     id="title2">Page 1</title>
  <desc
     id="desc4">Created with Sketch.</desc>
  <defs
     id="defs8">
    <polygon
       points="47.65,58.6709 0.6896,58.6709 0.6896,0.9439 47.65,0.9439 "
       id="path-1" />
    <polygon
       points="1.2821,233.9997 0.2821,233.9997 0.2821,0.718 1.2821,0.718 "
       id="path-3" />
  </defs>
  <g
     style="fill:#000000;fill-opacity:1;fill-rule:evenodd;stroke:none;stroke-width:1"
     transform="translate(771.42017,37.625804)"
     id="Group-21">
    <mask
       fill="white"
       id="mask-2">
      <use
         height="100%"
         width="100%"
         y="0"
         x="0"
         id="use19"
         xlink:href="#path-1" />
    </mask>
    <g
       style="fill:#000000;fill-opacity:1"
       id="Clip-20" />
  </g>
  <g
     transform="translate(-3.8269479e-4,-44.6562)"
     id="g937"
     style="fill:#000000;fill-opacity:1;stroke:#ffffff;stroke-opacity:1">
    <polygon
       id="Stroke-25"
       points="46.6561,47.6562 93.3131,47.6562 46.6561,94.3132 "
       style="fill:#000000;fill-opacity:1;fill-rule:evenodd;stroke:#ffffff;stroke-width:4;stroke-linecap:round;stroke-linejoin:round;stroke-opacity:1"
       transform="translate(2,-1)" />
    <polygon
       id="Stroke-27"
       points="46.6561,47.6562 0.0001,94.3132 46.6561,94.3132 "
       style="fill:#000000;fill-opacity:1;fill-rule:evenodd;stroke:#ffffff;stroke-width:4;stroke-linecap:round;stroke-linejoin:round;stroke-opacity:1"
       transform="translate(2,-1)" />
    <polygon
       id="Stroke-29"
       points="139.9696,47.6562 93.3136,47.6562 139.9696,94.3132 "
       style="fill:#000000;fill-opacity:1;fill-rule:evenodd;stroke:#ffffff;stroke-width:4;stroke-linecap:round;stroke-linejoin:round;stroke-opacity:1"
       transform="translate(2,-1)" />
    <polygon
       id="Stroke-31"
       points="93.3131,47.6562 139.9691,94.3132 46.6561,94.3132 "
       style="fill:#000000;fill-opacity:1;fill-rule:evenodd;stroke:#ffffff;stroke-width:4;stroke-linecap:round;stroke-linejoin:round;stroke-opacity:1"
       transform="translate(2,-1)" />
    <polygon
       id="Stroke-33"
       points="139.9696,47.6562 186.6256,94.3132 139.9696,94.3132 "
       style="fill:#000000;fill-opacity:1;fill-rule:evenodd;stroke:#ffffff;stroke-width:4;stroke-linecap:round;stroke-linejoin:round;stroke-opacity:1"
       transform="translate(2,-1)" />
    <polygon
       id="Stroke-35"
       points="0.0001,94.3132 93.3131,187.6262 46.6561,94.3132 "
       style="fill:#000000;fill-opacity:1;fill-rule:evenodd;stroke:#ffffff;stroke-width:4;stroke-linecap:round;stroke-linejoin:round;stroke-opacity:1"
       transform="translate(2,-1)" />
    <polygon
       id="Stroke-37"
       points="46.6566,94.3132 93.3136,187.6262 139.9696,94.3132 "
       style="fill:#000000;fill-opacity:1;fill-rule:evenodd;stroke:#ffffff;stroke-width:4;stroke-linecap:round;stroke-linejoin:round;stroke-opacity:1"
       transform="translate(2,-1)" />
    <polygon
       id="Stroke-39"
       points="139.9698,94.3132 93.3138,187.6262 186.6258,94.3132 "
       style="fill:#000000;fill-opacity:1;fill-rule:evenodd;stroke:#ffffff;stroke-width:4;stroke-linecap:round;stroke-linejoin:round;stroke-opacity:1"
       transform="translate(2,-1)" />
  </g>
  <g
     transform="translate(-60.000383,-44.6562)"
     id="g949">
    <path
       d="m 309.1141,76.9714 c -2.188,0 -3.983,0.667 -5.384,2 -1.401,1.333 -2.495,3.229 -3.28,5.69 -0.787,2.461 -1.333,5.47 -1.642,9.023 -0.306,3.556 -0.461,7.589 -0.461,12.099 0,4.376 0.155,8.272 0.461,11.689 0.309,3.42 0.872,6.324 1.693,8.716 0.82,2.393 1.948,4.221 3.384,5.486 1.435,1.265 3.281,1.897 5.536,1.897 3.964,0 6.819,-2.051 8.562,-6.153 1.743,-4.101 2.614,-10.868 2.614,-20.301 0,-5.195 -0.17,-9.69 -0.512,-13.484 -0.343,-3.794 -0.958,-6.921 -1.846,-9.382 -0.889,-2.461 -2.068,-4.288 -3.537,-5.485 -1.471,-1.195 -3.333,-1.795 -5.588,-1.795 m 1.846,-7.997 c 4.305,0 8.184,0.82 11.636,2.461 3.452,1.64 6.392,3.965 8.819,6.973 2.426,3.008 4.289,6.699 5.588,11.073 1.298,4.376 1.948,9.262 1.948,14.663 0,5.741 -0.684,10.936 -2.051,15.585 -1.368,4.648 -3.316,8.579 -5.845,11.791 -2.529,3.214 -5.604,5.69 -9.227,7.433 -3.624,1.744 -7.69,2.616 -12.202,2.616 -4.511,0 -8.561,-0.787 -12.15,-2.36 -3.589,-1.571 -6.631,-3.878 -9.126,-6.921 -2.496,-3.041 -4.393,-6.731 -5.69,-11.073 -1.3,-4.341 -1.948,-9.279 -1.948,-14.816 0,-5.878 0.682,-11.125 2.05,-15.74 1.368,-4.613 3.367,-8.526 5.998,-11.74 2.631,-3.212 5.809,-5.672 9.537,-7.382 3.724,-1.708 7.946,-2.563 12.663,-2.563"
       id="Fill-1"
       style="fill:#000000;fill-opacity:1;fill-rule:evenodd;stroke:none;stroke-width:1" />
    <path
       d="m 367.9686,133.4684 c 4.853,0 8.525,-1.759 11.022,-5.281 2.495,-3.52 3.743,-8.595 3.743,-15.226 0,-13.33 -4.547,-19.994 -13.637,-19.994 -0.344,0 -0.805,0.018 -1.385,0.051 -0.582,0.035 -1.145,0.12 -1.691,0.257 v 40.193 z m -1.948,20.097 8.715,2.871 v 6.254 h -32.093 v -6.254 l 6.972,-2.871 v -59.162 l -6.972,-2.051 v -6.255 l 23.378,-3.384 v 5.64 c 1.981,-0.957 3.724,-1.759 5.229,-2.41 1.502,-0.649 2.836,-1.179 3.999,-1.589 1.161,-0.41 2.22,-0.7 3.178,-0.871 0.957,-0.17 1.913,-0.257 2.871,-0.257 2.802,0 5.383,0.633 7.741,1.897 2.359,1.266 4.374,3.06 6.05,5.383 1.674,2.325 2.973,5.126 3.897,8.407 0.922,3.283 1.383,6.906 1.383,10.869 0,4.511 -0.684,8.682 -2.05,12.509 -1.369,3.829 -3.266,7.126 -5.691,9.895 -2.427,2.768 -5.316,4.922 -8.664,6.46 -3.349,1.538 -6.973,2.306 -10.868,2.306 -1.369,0 -2.53,-0.068 -3.487,-0.205 -0.958,-0.136 -2.153,-0.445 -3.588,-0.923 z"
       id="Fill-3"
       style="fill:#000000;fill-opacity:1;fill-rule:evenodd;stroke:none;stroke-width:1" />
    <path
       d="m 435.742,104.6559 v -3.076 c 0,-4.306 -0.497,-7.399 -1.487,-9.278 -0.992,-1.88 -2.65,-2.821 -4.973,-2.821 -2.666,0 -4.632,1.197 -5.895,3.589 -1.267,2.394 -1.898,6.152 -1.898,11.278 v 2.154 z m -14.253,7.689 c 0.547,6.153 2.41,10.836 5.588,14.048 3.179,3.214 7.537,4.82 13.073,4.82 1.367,0 2.734,-0.068 4.102,-0.206 1.367,-0.136 3.212,-0.41 5.537,-0.82 l 1.128,6.664 -2.154,0.514 c -3.418,0.819 -6.151,1.453 -8.202,1.896 -2.05,0.446 -3.778,0.803 -5.178,1.077 -1.402,0.273 -2.599,0.444 -3.588,0.512 -0.992,0.068 -2.138,0.103 -3.436,0.103 -3.624,0 -6.87,-0.666 -9.741,-1.999 -2.87,-1.333 -5.332,-3.179 -7.382,-5.537 -2.051,-2.359 -3.624,-5.195 -4.717,-8.51 -1.093,-3.315 -1.64,-6.955 -1.64,-10.92 0,-4.647 0.615,-8.869 1.845,-12.663 1.231,-3.794 2.99,-7.023 5.282,-9.69 2.289,-2.666 5.039,-4.733 8.253,-6.203 3.212,-1.468 6.767,-2.205 10.664,-2.205 3.007,0 5.793,0.48 8.356,1.436 2.563,0.958 4.768,2.428 6.613,4.409 1.846,1.983 3.297,4.478 4.359,7.484 1.058,3.009 1.588,6.564 1.588,10.664 v 5.126 z"
       id="Fill-5"
       style="fill:#000000;fill-opacity:1;fill-rule:evenodd;stroke:none;stroke-width:1" />
    <path
       d="m 479.8309,130.6999 5.846,2.871 v 6.254 h -29.223 v -6.254 l 6.869,-2.871 v -36.297 l -6.869,-2.051 v -6.255 l 23.377,-3.383 v 6.152 c 2.802,-1.298 5.04,-2.341 6.715,-3.128 1.674,-0.784 3.059,-1.349 4.153,-1.691 1.094,-0.341 2.001,-0.564 2.717,-0.666 0.718,-0.103 1.52,-0.155 2.409,-0.155 2.052,0 3.948,0.377 5.691,1.128 1.744,0.753 3.247,1.864 4.512,3.332 1.264,1.472 2.272,3.282 3.024,5.435 0.753,2.153 1.13,4.665 1.13,7.536 v 30.043 l 6.87,2.871 v 6.254 h -29.223 v -6.254 l 5.74,-2.871 v -25.019 c 0,-4.442 -0.666,-7.586 -1.999,-9.432 -1.333,-1.846 -3.572,-2.769 -6.715,-2.769 -0.89,0 -1.71,0.035 -2.461,0.102 -0.753,0.069 -1.607,0.206 -2.563,0.411 z"
       id="Fill-7"
       style="fill:#000000;fill-opacity:1;fill-rule:evenodd;stroke:none;stroke-width:1" />
    <path
       d="m 547.0907,100.9645 c 7.518,0 11.278,-4.102 11.278,-12.304 0,-1.64 -0.169,-3.161 -0.509,-4.562 -0.345,-1.401 -0.892,-2.649 -1.643,-3.742 -0.754,-1.093 -1.742,-1.949 -2.972,-2.565 -1.233,-0.615 -2.734,-0.923 -4.513,-0.923 h -3.999 v 24.096 z m -2.358,29.735 6.87,2.871 v 6.254 h -30.863 v -6.254 l 6.871,-2.871 v -51.472 l -6.871,-2.87 v -6.255 h 32.505 c 3.485,0 6.51,0.188 9.073,0.564 2.565,0.376 4.733,1.076 6.509,2.102 2.872,1.573 4.906,3.589 6.104,6.049 1.195,2.46 1.793,5.229 1.793,8.305 0,8.751 -4.718,14.321 -14.151,16.713 l 16.919,26.864 5.742,2.871 v 6.254 h -20.814 l -18.353,-32.092 h -1.334 z"
       id="Fill-9"
       style="fill:#000000;fill-opacity:1;fill-rule:evenodd;stroke:none;stroke-width:1" />
    <path
       d="m 615.5839,104.6559 v -3.076 c 0,-4.306 -0.498,-7.399 -1.488,-9.278 -0.991,-1.88 -2.65,-2.821 -4.973,-2.821 -2.665,0 -4.631,1.197 -5.895,3.589 -1.265,2.394 -1.898,6.152 -1.898,11.278 v 2.154 z m -14.254,7.689 c 0.546,6.153 2.411,10.836 5.589,14.048 3.179,3.214 7.535,4.82 13.072,4.82 1.367,0 2.734,-0.068 4.102,-0.206 1.367,-0.136 3.213,-0.41 5.538,-0.82 l 1.127,6.664 -2.153,0.514 c -3.418,0.819 -6.153,1.453 -8.204,1.896 -2.05,0.446 -3.777,0.803 -5.177,1.077 -1.402,0.273 -2.598,0.444 -3.588,0.512 -0.992,0.068 -2.137,0.103 -3.436,0.103 -3.624,0 -6.87,-0.666 -9.74,-1.999 -2.872,-1.333 -5.332,-3.179 -7.383,-5.537 -2.051,-2.359 -3.624,-5.195 -4.716,-8.51 -1.095,-3.315 -1.641,-6.955 -1.641,-10.92 0,-4.647 0.615,-8.869 1.845,-12.663 1.232,-3.794 2.99,-7.023 5.282,-9.69 2.288,-2.666 5.04,-4.733 8.254,-6.203 3.212,-1.468 6.767,-2.205 10.664,-2.205 3.006,0 5.792,0.48 8.355,1.436 2.565,0.958 4.768,2.428 6.614,4.409 1.846,1.983 3.297,4.478 4.358,7.484 1.058,3.009 1.589,6.564 1.589,10.664 v 5.126 z"
       id="Fill-11"
       style="fill:#000000;fill-opacity:1;fill-rule:evenodd;stroke:none;stroke-width:1" />
    <path
       d="m 643.1639,92.3522 h -6.255 v -8.511 h 6.255 v -3.691 c 0,-3.076 0.632,-5.725 1.897,-7.946 1.264,-2.221 2.871,-4.05 4.818,-5.486 1.949,-1.435 4.119,-2.477 6.513,-3.127 2.391,-0.649 4.715,-0.974 6.971,-0.974 1.436,0 3.23,0.12 5.384,0.359 2.152,0.239 5.279,0.666 9.381,1.281 v 12.1 h -10.971 l -2.972,-7.896 c -1.575,0.138 -2.703,0.769 -3.386,1.897 -0.684,1.128 -1.025,3.128 -1.025,5.999 v 7.484 h 8.511 v 8.511 h -8.511 v 38.348 l 8.511,2.871 v 6.254 h -31.376 v -6.254 l 6.255,-2.871 z"
       id="Fill-13"
       style="fill:#000000;fill-opacity:1;fill-rule:evenodd;stroke:none;stroke-width:1" />
    <path
       d="m 691.4559,62.6169 c 3.623,0 6.168,0.548 7.64,1.641 1.468,1.094 2.204,3.008 2.204,5.742 0,2.734 -0.736,4.614 -2.204,5.639 -1.472,1.026 -4.017,1.538 -7.64,1.538 -3.622,0 -6.135,-0.512 -7.536,-1.538 -1.402,-1.025 -2.101,-2.905 -2.101,-5.639 0,-2.734 0.699,-4.648 2.101,-5.742 1.401,-1.093 3.914,-1.641 7.536,-1.641 z m -7.895,31.786 -6.87,-2.051 v -6.255 l 23.378,-3.383 v 47.986 l 6.87,2.871 v 6.254 h -30.248 v -6.254 l 6.87,-2.871 z"
       id="Fill-15"
       style="fill:#000000;fill-opacity:1;fill-rule:evenodd;stroke:none;stroke-width:1" />
    <path
       d="m 732.9833,130.6999 5.846,2.871 v 6.254 h -29.223 v -6.254 l 6.87,-2.871 v -36.297 l -6.87,-2.051 v -6.255 l 23.377,-3.383 v 6.152 c 2.803,-1.298 5.041,-2.341 6.717,-3.128 1.674,-0.784 3.057,-1.349 4.153,-1.691 1.092,-0.341 1.999,-0.564 2.717,-0.666 0.718,-0.103 1.52,-0.155 2.409,-0.155 2.05,0 3.947,0.377 5.691,1.128 1.744,0.753 3.245,1.864 4.51,3.332 1.265,1.472 2.274,3.282 3.026,5.435 0.751,2.153 1.128,4.665 1.128,7.536 v 30.043 l 6.87,2.871 v 6.254 h -29.223 v -6.254 l 5.742,-2.871 v -25.019 c 0,-4.442 -0.667,-7.586 -1.999,-9.432 -1.333,-1.846 -3.573,-2.769 -6.717,-2.769 -0.888,0 -1.708,0.035 -2.461,0.102 -0.751,0.069 -1.606,0.206 -2.563,0.411 z"
       id="Fill-17"
       style="fill:#000000;fill-opacity:1;fill-rule:evenodd;stroke:none;stroke-width:1" />
    <path
       d="m 801.5839,104.6559 v -3.076 c 0,-4.306 -0.498,-7.399 -1.488,-9.278 -0.991,-1.88 -2.65,-2.821 -4.973,-2.821 -2.665,0 -4.631,1.197 -5.895,3.589 -1.265,2.394 -1.898,6.152 -1.898,11.278 v 2.154 z m -14.254,7.689 c 0.546,6.153 2.411,10.836 5.589,14.048 3.179,3.214 7.535,4.82 13.072,4.82 1.367,0 2.734,-0.068 4.102,-0.206 1.367,-0.136 3.213,-0.41 5.538,-0.82 l 1.127,6.664 -2.153,0.514 c -3.418,0.819 -6.153,1.453 -8.204,1.896 -2.05,0.446 -3.777,0.803 -5.177,1.077 -1.402,0.273 -2.598,0.444 -3.588,0.512 -0.992,0.068 -2.137,0.103 -3.436,0.103 -3.624,0 -6.87,-0.666 -9.74,-1.999 -2.872,-1.333 -5.332,-3.179 -7.383,-5.537 -2.051,-2.359 -3.624,-5.195 -4.716,-8.51 -1.095,-3.315 -1.641,-6.955 -1.641,-10.92 0,-4.647 0.615,-8.869 1.845,-12.663 1.232,-3.794 2.99,-7.023 5.282,-9.69 2.288,-2.666 5.04,-4.733 8.254,-6.203 3.212,-1.468 6.767,-2.205 10.664,-2.205 3.006,0 5.792,0.48 8.355,1.436 2.565,0.958 4.768,2.428 6.614,4.409 1.846,1.983 3.297,4.478 4.358,7.484 1.058,3.009 1.589,6.564 1.589,10.664 v 5.126 z"
       id="Fill-11-3"
       style="fill:#000000;fill-opacity:1" />
  </g>
</svg>
