<svg id="Layer_1" data-name="Layer 1" xmlns="http://www.w3.org/2000/svg" viewBox="0 0 117.15 82.57"><defs><style>.cls-1{fill:#32739b;}</style></defs><title>ProWiki-</title><path class="cls-1" d="M70.93,0H47.27A5.47,5.47,0,0,0,41.8,5.47v4A32,32,0,0,1,64.45,23.08l12-3.43V5.47A5.47,5.47,0,0,0,70.93,0Z"/><path class="cls-1" d="M64.9,58.74A32,32,0,0,1,41.8,73V77.1a5.47,5.47,0,0,0,5.47,5.47H70.93A5.47,5.47,0,0,0,76.4,77.1V62.59Z"/><path class="cls-1" d="M6.26,41.24A32,32,0,0,1,34.6,9.51v-4A5.47,5.47,0,0,0,29.13,0H5.47A5.47,5.47,0,0,0,0,5.47V77.1a5.47,5.47,0,0,0,5.47,5.47H29.13A5.47,5.47,0,0,0,34.6,77.1V73A32,32,0,0,1,6.26,41.24Z"/><path class="cls-1" d="M100,39.5A17.17,17.17,0,1,0,82.82,22.33c0,.42,0,.83.06,1.25L61.2,30.21a25.51,25.51,0,1,0,.16,21.7l21.22,6.91c0,.11,0,.23,0,.34a11.36,11.36,0,1,0,1.66-5.88l-21-6.86a25.21,25.21,0,0,0,.53-5.18,25.63,25.63,0,0,0-.27-3.74l21.68-6.63A17.13,17.13,0,0,0,100,39.5Z"/></svg>
