<?xml version="1.0" encoding="UTF-8" standalone="no"?>
<svg
   xmlns:dc="http://purl.org/dc/elements/1.1/"
   xmlns:cc="http://creativecommons.org/ns#"
   xmlns:rdf="http://www.w3.org/1999/02/22-rdf-syntax-ns#"
   xmlns:svg="http://www.w3.org/2000/svg"
   xmlns="http://www.w3.org/2000/svg"
   height="45"
   width="292.63663"
   id="svg42"
   version="1.1"
   viewBox="0 0 292.6366 44.999999">
  <metadata
     id="metadata46">
    <rdf:RDF>
      <cc:Work
         rdf:about="">
        <dc:format>image/svg+xml</dc:format>
        <dc:type
           rdf:resource="http://purl.org/dc/dcmitype/StillImage" />
        <dc:title>Asset 1</dc:title>
      </cc:Work>
    </rdf:RDF>
  </metadata>
  <defs
     id="defs10">
    <style
       id="style2">.cls-1,.cls-6{fill:none;}.cls-2{clip-path:url(#clip-path);}.cls-3{fill:#231f20;}.cls-4{opacity:0.5;}.cls-5{clip-path:url(#clip-path-3);}.cls-6{stroke:#231f20;stroke-width:0.5px;}</style>
    <clipPath
       transform="translate(-5.79)"
       id="clip-path">
      <rect
         style="fill:none"
         y="0"
         id="rect4"
         height="110.6"
         width="128.49001"
         x="5.79"
         class="cls-1" />
    </clipPath>
    <clipPath
       transform="translate(-5.79)"
       id="clip-path-3">
      <rect
         style="fill:none"
         x="0"
         id="rect7"
         height="11.71"
         width="137.57001"
         y="22.16"
         class="cls-1" />
    </clipPath>
  </defs>
  <title
     id="title12">Asset 1</title>
  <path
     style="fill:#231f20;stroke-width:2.27732801"
     id="path14"
     d="m 292.61387,30.743927 -9.10932,10.202429 H 269.84059 V 23.433704 h 7.74291 l 5.42004,7.196357 V 12.183704 l -5.39726,7.173583 h -7.74292 V 3.689271 h 13.66397 L 292.63664,13.8917 V 0.728745 H 257.1331 l 4.98735,4.554656 v 34.182692 l -4.98735,4.554656 h 35.48077 z m -96.90031,13.162956 h 17.58097 l -6.39929,-5.716094 V 7.993421 L 223.86134,45 240.71356,8.243927 v 31.222166 l -4.98735,4.554656 h 17.71762 l -4.98735,-4.554656 V 5.169534 l 4.98735,-4.440789 H 240.09868 L 226.13866,30.857793 212.06478,0.728745 h -14.93927 l 4.96457,4.554656 v 33.021255 z m -23.25152,0.728745 c 13.82339,0 21.40689,-11.38664 21.40689,-22.317814 C 193.86893,11.38664 186.35374,0 172.46204,0 c -13.8917,0 -21.40688,11.38664 -21.40688,22.317814 0,10.931174 7.56073,22.317814 21.40688,22.317814 m 0,-42.062247 c 9.10932,0 11.97875,9.65587 11.97875,17.353238 v 4.782389 c 0,7.765688 -2.75557,17.353239 -11.97875,17.353239 -9.22317,0 -12.00151,-9.587551 -12.00151,-17.353239 v -4.782389 c 0,-7.697368 2.77834,-17.353238 12.00151,-17.353238 m -58.77783,11.386639 8.72217,-9.838056 h 12.84413 L 110.86032,43.906883 H 143.9499 V 30.743927 l -8.72217,9.838057 H 122.042 L 146.22723,0.728745 H 113.68421 Z M 102.1837,5.169534 107.17105,0.728745 H 89.453441 l 4.987348,4.554656 v 34.182692 l -4.987348,4.554656 H 107.17105 L 102.1837,39.466093 Z M 80.776822,39.466093 V 5.169534 L 85.69585,0.728745 H 68.046559 l 4.987348,4.554656 V 20.290992 H 54.223178 V 5.169534 L 59.210526,0.728745 H 41.470142 l 4.987348,4.554656 v 34.182692 l -4.987348,4.554656 H 59.187753 L 54.200405,39.466093 V 23.524797 h 18.810729 v 15.941296 l -4.987349,4.554656 H 85.741397 Z M 28.762652,13.276822 c 0,5.35172 -4.554656,8.858805 -11.614373,8.858805 H 12.593623 V 3.324899 h 2.596154 c 9.109312,0 13.459008,4.9873481 13.459008,9.951923 M 0,0.728745 5.032895,5.169534 V 39.466093 L 0.06832,44.020749 H 17.763158 L 12.77581,39.466093 V 24.709008 h 1.844635 l 7.993421,11.136134 c 4.554656,6.330971 9.473685,8.790486 14.02834,8.790486 a 13.254049,13.254049 0 0 0 4.30415,-0.728745 C 36.892713,42.790992 34.114372,40.468117 29.081478,32.520243 l -5.169535,-8.061741 c 6.467612,-1.115891 12.84413,-5.465587 12.84413,-12.980769 0,-5.89828 -5.146761,-10.703442 -18.059211,-10.703442 z"
     class="cls-3" />
</svg>
