<?xml version="1.0" encoding="UTF-8" standalone="no"?>
<svg
   xmlns:dc="http://purl.org/dc/elements/1.1/"
   xmlns:cc="http://creativecommons.org/ns#"
   xmlns:rdf="http://www.w3.org/1999/02/22-rdf-syntax-ns#"
   xmlns:svg="http://www.w3.org/2000/svg"
   xmlns="http://www.w3.org/2000/svg"
   style="fill:none"
   id="svg879"
   version="1.1"
   viewBox="0 0 177.80922 40.000534"
   height="40.000534"
   width="177.80922">
  <metadata
     id="metadata885">
    <rdf:RDF>
      <cc:Work
         rdf:about="">
        <dc:format>image/svg+xml</dc:format>
        <dc:type
           rdf:resource="http://purl.org/dc/dcmitype/StillImage" />
        <dc:title></dc:title>
      </cc:Work>
    </rdf:RDF>
  </metadata>
  <defs
     id="defs883" />
  <path
     style="clip-rule:evenodd;fill:#252525;fill-rule:evenodd"
     id="path877"
     d="m 53.175224,15.207953 2.797,-9.0589999 h 3.676 l 2.774,9.0589999 3.134,-9.0589999 h 3.812 l -5.503,15.7509999 h -2.616 l -3.45,-10.95 -3.429,10.95 h -2.616 l -5.503,-15.7499999 h 3.812 z m 18.345,6.692 h 3.173 V 6.1499531 h -3.174 V 21.899953 Z m 7.366,-15.7509999 h 3.49 v 6.4679999 l 5.903,-6.4679999 h 4.317 l -6.217,6.9629999 c 0.537,0.752 1.528,2.152 2.974,4.203 1.447,2.05 2.528,3.579 3.244,4.585 h -4.071 l -4.585,-6.219 -1.566,1.758 v 4.461 h -3.489 V 6.1499531 Z m 15.863,15.7509999 h 3.173 V 6.1499531 h -3.172 V 21.899953 Z m 21.698996,-9.914 -4.327,8.607 h -2.13 l -4.304,-8.607 v 9.914 h -3.571 V 6.1499531 h 4.83 l 4.122,8.6519999 4.143,-8.6529999 h 4.808 V 21.899953 h -3.57 v -9.914 z m 17.941,-5.8369999 v 3.133 h -7.81 v 3.2439999 h 7.025 v 2.998 h -7.024 v 3.268 h 8.057 v 3.11 h -11.558 V 6.1479531 h 11.31 z m 13.167,11.4249999 c 0.891,-0.811 1.337,-1.99 1.337,-3.538 0,-1.547 -0.446,-2.738 -1.337,-3.572 -0.891,-0.8339999 -2.257,-1.2499999 -4.1,-1.2499999 h -2.022 v 9.5769999 h 2.3 c 1.658,0 2.931,-0.406 3.822,-1.217 m 2.661,-9.3629999 c 1.548,1.374 2.323,3.2869999 2.323,5.7349999 0,2.448 -0.756,4.386 -2.266,5.813 -1.51,1.428 -3.814,2.141 -6.912,2.141 h -5.553 V 6.1499531 h 5.739 c 2.896,0 5.119,0.686 6.669,2.06 m 4.476,13.6899999 h 3.173 V 6.1499531 h -3.173 z m 14.687,-11.064 -1.97,4.575 h 3.916 z m 4.718,11.064 -1.454,-3.402 h -6.552 l -1.454,3.402 h -3.713 l 6.755,-15.7499999 h 3.376 l 6.753,15.7499999 z m -117.373996,10.024 c 0,-1.687 -0.923,-2.53 -2.77,-2.53 h -1.188 v 5.048 h 1.32 c 0.852,0 1.505,-0.213 1.958,-0.638 0.454,-0.424 0.68,-1.051 0.68,-1.88 m 0.181,-2.714 c 0.678,0.643 1.017,1.537 1.017,2.682 0,1.145 -0.329,2.051 -0.986,2.718 -0.659,0.668 -1.666,1.001 -3.022,1.001 h -2.337 v -7.365 h 2.417 c 1.262,0 2.232,0.321 2.911,0.964 m 11.318,-0.964 v 1.17 h -3.864 v 1.948 h 3.471 v 1.107 h -3.47 v 1.97 h 3.989 v 1.17 h -5.213 v -7.365 h 5.088 z m 8.249,5.623 c 0.343,0.39 0.807,0.584 1.394,0.584 0.586,0 1.05,-0.194 1.393,-0.584 0.343,-0.39 0.514,-0.918 0.514,-1.586 v -4.037 h 1.265 v 4.09 c 0,1.05 -0.296,1.858 -0.89,2.425 -0.592,0.567 -1.353,0.85 -2.282,0.85 -0.93,0 -1.69,-0.283 -2.284,-0.85 -0.593,-0.567 -0.89,-1.375 -0.89,-2.425 v -4.09 h 1.266 v 4.037 c 0,0.668 0.171,1.196 0.514,1.586 m 12.953,-4.485 v 6.227 h -1.135 v -6.227 h -2.039 v -1.138 h 5.213 v 1.138 z m 9.951,-0.03 c -0.33,0 -0.602,0.072 -0.814,0.214 -0.212,0.143 -0.318,0.358 -0.318,0.646 0,0.288 0.106,0.508 0.318,0.661 0.212,0.153 0.663,0.318 1.354,0.494 0.689996,0.176 1.209996,0.424 1.559996,0.742 0.351,0.32 0.526,0.788 0.526,1.41 0,0.62 -0.221,1.123 -0.665,1.51 -0.443,0.386 -1.024,0.58 -1.743996,0.58 -1.054,0 -1.988,-0.383 -2.803,-1.15 l 0.712,-0.905 c 0.681,0.624 1.388,0.936 2.12,0.936 0.366,0 0.656996,-0.083 0.871996,-0.25 a 0.794,0.794 0 0 0 0.323,-0.66 c 0,-0.275 -0.101,-0.489 -0.304,-0.641 -0.202,-0.153 -0.550996,-0.292 -1.044996,-0.418 a 8.932,8.932 0 0 1 -1.127,-0.346 2.496,2.496 0 0 1 -0.684,-0.412 c -0.399,-0.319 -0.598,-0.807 -0.598,-1.465 0,-0.657 0.226,-1.164 0.68,-1.52 0.452,-0.356 1.012,-0.534 1.68,-0.534 0.431,0 0.857996,0.074 1.281996,0.224 0.424,0.149 0.79,0.359 1.098,0.63 l -0.606,0.905 c -0.2,-0.19 -0.47,-0.346 -0.81,-0.467 a 2.972,2.972 0 0 0 -1.006996,-0.184 m 11.521996,5.087 c 0.399,0 0.742,-0.07 1.03,-0.208 0.287,-0.14 0.588,-0.362 0.902,-0.667 l 0.746,0.794 c -0.727,0.834 -1.607,1.251 -2.644,1.251 -1.036,0 -1.896,-0.346 -2.579,-1.038 -0.683,-0.691 -1.025,-1.566 -1.025,-2.624 0,-1.059 0.348,-1.94 1.044,-2.645 0.697,-0.706 1.576,-1.058 2.639,-1.058 1.062,0 1.95,0.407 2.662,1.22 l -0.735,0.835 c -0.327,-0.326 -0.636,-0.553 -0.927,-0.681 a 2.513,2.513 0 0 0 -1.025,-0.194 c -0.693,0 -1.275,0.233 -1.746,0.696 -0.47,0.465 -0.706,1.059 -0.706,1.78 0,0.724 0.234,1.327 0.702,1.812 0.467,0.485 1.02,0.727 1.662,0.727 m 7.988,1.17 v -7.365 h 1.055 v 3.192 h 3.103 v -3.192 h 1.055 v 7.365 h -1.055 v -3.013 h -3.103 v 3.013 z m 12.692,0 v -7.365 h 1.132 v 6.185 h 3.06 v 1.18 h -4.191 z m 14.348,-2.824 -1.261,-3.034 -1.26,3.034 h 2.52 z m -2.999,1.149 -0.694,1.675 h -1.251 l 3.057,-7.365 h 1.251 l 3.057,7.365 h -1.25 l -0.695,-1.675 z m 15.812,-5.69 h 1.167 v 7.365 h -1.266 l -3.914,-5.374 v 5.374 h -1.166 v -7.365 h 1.166 l 4.013,5.5 z m 12.658,3.678 c 0,-1.687 -0.922,-2.53 -2.77,-2.53 h -1.188 v 5.048 h 1.32 c 0.853,0 1.506,-0.213 1.959,-0.638 0.454,-0.424 0.679,-1.051 0.679,-1.88 m 0.183,-2.714 c 0.677,0.643 1.017,1.537 1.017,2.682 0,1.145 -0.33,2.051 -0.988,2.718 -0.658,0.668 -1.665,1.001 -3.02,1.001 h -2.338 v -7.365 h 2.417 c 1.262,0 2.233,0.321 2.912,0.964" />
  <path
     id="path887"
     d="m 21.644012,31.615499 c 5.956,-0.824 10.538,-5.836 10.538,-11.896 0,-3.682 -1.691,-6.975999 -4.355,-9.179999 l -6.183,6.054999 v 15.02 z m -3.174,0 v -15.02 l -6.184,-6.056999 c -2.6630004,2.205 -4.3540004,5.499999 -4.3540004,9.179999 0,6.061 4.5820004,11.073 10.5380004,11.897"
     style="clip-rule:evenodd;fill:#252525;fill-rule:evenodd" />
  <path
     id="path889"
     d="m 30.694012,9.3664996 a 14.98,14.98 0 0 1 4.429,10.6719994 14.98,14.98 0 0 1 -4.43,10.674 15.038,15.038 0 0 1 -10.693,4.42 c -4.04,0 -7.837,-1.57 -10.6940004,-4.42 a 14.98,14.98 0 0 1 -4.429,-10.674 14.98,14.98 0 0 1 4.43,-10.6719994 c 0.245,-0.245 0.497,-0.48 0.7560004,-0.705 L 6.6080116,5.2125001 A 19.888,19.888 0 0 0 1.1575106e-5,20.038499 19.895,19.895 0 0 0 5.8580116,34.153499 a 19.934,19.934 0 0 0 6.3570004,4.277 19.905,19.905 0 0 0 7.785,1.57 c 2.7,0 5.318,-0.528 7.786,-1.57 a 19.934,19.934 0 0 0 6.356,-4.277 19.904,19.904 0 0 0 5.857999,-14.115 19.897,19.897 0 0 0 -6.607999,-14.8259989 l -3.455,3.4499995 c 0.259,0.224 0.511,0.46 0.756,0.704"
     style="clip-rule:evenodd;fill:#252525;fill-rule:evenodd" />
  <path
     id="path891"
     d="m 20.000012,5.00125e-4 a 6.29,6.29 0 1 1 0,12.578999875 6.29,6.29 0 0 1 0,-12.578999875"
     style="clip-rule:evenodd;fill:#252525;fill-rule:evenodd" />
</svg>
